<?xml version="1.0" standalone="no"?>
<!DOCTYPE svg PUBLIC "-//W3C//DTD SVG 20010904//EN"
 "http://www.w3.org/TR/2001/REC-SVG-20010904/DTD/svg10.dtd">
<svg version="1.0" xmlns="http://www.w3.org/2000/svg"
 width="260.000000pt" height="260.000000pt" viewBox="0 0 260.000000 260.000000"
 preserveAspectRatio="xMidYMid meet">
<metadata>
Created by potrace 1.11, written by Peter Selinger 2001-2013
</metadata>
<g transform="translate(0.000000,260.000000) scale(0.100000,-0.100000)"
fill="#000000" stroke="none">
<path d="M209 2593 c-15 -2 -51 -19 -80 -36 -66 -40 -115 -114 -124 -191 -3
-28 -5 -528 -3 -1111 3 -1013 4 -1062 22 -1095 34 -64 63 -95 117 -125 l54
-30 1105 0 1105 0 54 30 c54 30 83 61 117 125 18 33 19 78 22 927 l3 892 -25
7 c-18 4 -25 12 -23 27 2 17 -70 73 -368 289 -203 147 -376 268 -383 268 -7 0
-15 7 -18 15 -5 13 -100 15 -778 14 -424 -1 -783 -4 -797 -6z m1488 -80 c-3
-16 -16 -71 -27 -123 -17 -75 -22 -144 -27 -328 l-6 -233 59 27 c120 54 261
106 344 126 77 18 95 19 190 9 58 -6 150 -21 205 -34 l100 -22 3 -830 c2 -600
0 -845 -8 -884 -15 -66 -73 -130 -136 -149 -32 -9 -291 -12 -1096 -12 -1164 0
-1108 -3 -1176 63 -64 62 -62 21 -62 1177 0 1158 -2 1115 63 1178 63 62 51 61
851 61 l729 1 -6 -27z m410 -228 c160 -115 290 -211 289 -212 -1 -1 -42 4 -91
12 -172 28 -266 16 -465 -59 -52 -19 -96 -33 -99 -30 -2 2 1 77 7 166 11 154
45 343 61 336 4 -2 138 -97 298 -213z"/>
</g>
</svg>
