<?xml version="1.0" encoding="UTF-8" standalone="no"?>
<svg xmlns:dc="http://purl.org/dc/elements/1.1/" xmlns:cc="http://creativecommons.org/ns#" xmlns:rdf="http://www.w3.org/1999/02/22-rdf-syntax-ns#" xmlns:svg="http://www.w3.org/2000/svg" xmlns="http://www.w3.org/2000/svg" xmlns:xlink="http://www.w3.org/1999/xlink" width="269.95364mm" height="261.72525mm" viewBox="0 0 269.95364 261.72525" version="1.1" id="svg8">
   <defs id="defs2">
      <linearGradient gradientUnits="userSpaceOnUse" y2="160.65788" x2="223.3577" y1="170.86327" x1="225.81454" id="linearGradient854" xlink:href="#linearGradient852" />
      <linearGradient gradientTransform="matrix(0.20484307,0.57259963,-0.59981911,0.1955474,83.953753,-27.074795)" xlink:href="#linearGradient852" id="linearGradient854-0" x1="225.81454" y1="170.86327" x2="223.3577" y2="160.65788" gradientUnits="userSpaceOnUse" />
      <linearGradient y2="160.65788" x2="223.3577" y1="170.86327" x1="225.81454" gradientTransform="matrix(-0.5783856,3.066406,-4.8211022,-0.59878288,1141.6338,290.09583)" gradientUnits="userSpaceOnUse" id="linearGradient882" xlink:href="#linearGradient852" />
      <linearGradient y2="160.65788" x2="223.3577" y1="170.86327" x1="225.81454" gradientTransform="matrix(1.5080408,2.7318836,4.3922494,-2.0759841,-415.46968,600.12689)" gradientUnits="userSpaceOnUse" id="linearGradient886" xlink:href="#linearGradient852" />
   </defs>
   <metadata id="metadata5">
      <rdf:RDF>
         <cc:Work rdf:about="">
            <dc:format>image/svg+xml</dc:format>
            <dc:type rdf:resource="http://purl.org/dc/dcmitype/StillImage" />
            <dc:title></dc:title>
         </cc:Work>
      </rdf:RDF>
   </metadata>
   <g id="layer1" transform="translate(-7.5332936,-10.034377)">
      <path id="path844" style="fill:#483737;stroke:none;stroke-width:1.5" d="m 147.87024,10.790329 c -1.52769,-7.67e-4 -3.0555,0.0016 -4.58318,0.0021 -2.66393,0.01456 -5.35662,-0.04094 -7.9835,0.426331 -2.13342,0.516692 -2.95914,0.831437 -3.69279,2.795695 -0.78715,1.927412 -1.14374,3.943624 -1.64435,5.943306 -0.51087,2.14116 -1.01041,4.283186 -1.5751,6.413045 -0.52403,2.180803 -1.14176,4.340717 -1.53065,6.547921 -0.18081,0.830506 -0.37479,1.782174 -0.60668,2.601908 -0.59183,2.092246 -1.52004,4.082222 -2.27738,6.125208 -0.85622,2.447427 -1.6165,4.920374 -2.31201,7.408849 l -1.52135,-0.962732 c 0.007,0.419727 -0.43157,0.688862 -0.69918,0.950331 -1.40977,1.094637 -2.93049,2.021636 -4.51549,2.842204 -2.1784,1.165151 -4.38724,2.366804 -6.81044,2.935221 l 1.16737,0.953945 c -1.89844,1.110602 -3.80592,2.204995 -5.74331,3.246832 -2.49524,1.289624 -5.026643,2.558449 -7.754052,3.283521 l 1.628325,1.323433 c 2.638397,-0.903534 5.110747,-2.195788 7.576797,-3.48351 1.96641,-1.049088 3.91027,-2.139698 5.86269,-3.214272 l -1.05213,-0.80822 c 2.31938,-0.773469 4.49115,-1.931032 6.65851,-3.049944 1.61852,-0.802505 3.16963,-1.72706 4.6178,-2.806547 0.11313,-0.08779 0.22277,-0.178938 0.32763,-0.273367 -0.34843,1.277739 -0.68284,2.558534 -1.00304,3.84266 -0.38339,1.520169 -0.78061,3.045782 -0.99167,4.596616 -0.0125,0.09134 -0.21154,1.498413 0.032,1.714625 0.80908,0.717849 1.82488,1.21235 2.7373,1.818494 1.76772,0.460322 3.63056,0.23775 5.4467,0.273886 3.50755,-0.03721 7.01561,-0.04501 10.52338,-0.04858 4.3949,0.0077 8.79051,0.04605 13.18318,0.181385 1.80459,0.06693 3.60611,0.150757 5.40897,0.248563 0.51321,0.02783 2.34348,0.132532 2.89853,0.135392 0.30342,0.0016 0.60646,-0.02824 0.90951,-0.04238 0.25784,-0.04228 0.52348,-0.0555 0.77359,-0.126606 1.11805,-0.317815 1.27998,-1.31005 1.29657,-2.241206 0.006,-1.270513 -5.3e-4,-2.54118 0.0109,-3.811654 0.0423,-1.937604 0.12631,-3.874725 0.33486,-5.804297 0.23495,-2.126353 0.62066,-4.236939 0.80822,-6.364469 l -2.50476,-1.399398 c 0.0153,2.15314 -0.37725,4.296847 -0.62528,6.435781 -0.21485,1.917988 -0.38089,3.841184 -0.43977,5.768641 -0.0384,1.27118 -0.0305,2.542776 -0.0207,3.814236 -0.0866,1.475071 -0.17181,1.863704 -1.83606,2.067576 -3.01607,0.0396 -6.03374,-0.178668 -9.04906,-0.276987 -4.37576,-0.136723 -8.75446,-0.111948 -13.13202,-0.130222 -3.55403,-0.01934 -7.10796,-0.02561 -10.66188,-0.05891 -1.22165,-0.08831 -2.49013,0.07238 -3.72328,-0.01188 -0.019,-0.264004 -0.002,-0.530698 0.0181,-0.794784 0.11759,-1.558515 0.50547,-3.106772 0.83975,-4.633309 0.93184,-4.116234 2.11839,-8.177602 3.55275,-12.170833 0.76688,-2.035665 1.72824,-4.008935 2.34973,-6.089551 0.26613,-0.890897 0.43246,-1.708672 0.63458,-2.611727 0.42471,-2.194189 1.03514,-4.349649 1.56632,-6.522082 0.56729,-2.132218 1.0614,-4.278576 1.55597,-6.425964 0.49874,-1.981129 0.87123,-3.978446 1.67122,-5.881295 0.67705,-1.808831 1.56111,-2.151128 3.51813,-2.607593 2.59557,-0.429493 5.24902,-0.405645 7.87756,-0.42478 3.05264,-0.01302 6.10494,0.02329 9.15757,0.01085 3.42005,0.01667 6.84225,-0.04949 10.26088,0.05168 0.9402,0.12311 1.94107,0.02104 2.89801,0.126607 0.0657,0.125069 0.11051,0.21096 0.20516,0.399459 0.69984,3.150039 -0.003,6.378512 -0.55449,9.503812 -0.44892,2.814362 -1.1001,5.584324 -2.03192,8.297168 -0.0267,0.07946 -0.052,0.159238 -0.0785,0.238745 l -0.50074,-0.237195 -4.12223,-0.590661 -3.68918,-1.288811 c -2.9585,-0.0154 -5.91741,-0.01404 -8.87594,0.0052 -5.35064,0.02921 -10.73358,0.137964 -16.06001,-0.09147 l 5.34593,1.88774 c 5.27564,0.12586 10.57153,0.0027 15.85743,-0.01344 2.13594,-0.0053 4.27099,0.0089 6.40581,0.02946 l 3.28507,4.164086 c 0.15309,0.07976 0.52712,0.254292 0.99787,0.469739 -0.0806,0.274098 -0.16223,0.548202 -0.24133,0.822689 l 2.40038,1.416969 c 0.10142,-0.378331 0.2038,-0.756418 0.30696,-1.134299 4.78724,2.132125 13.24201,5.828888 20.53001,9.02374 -0.0142,0.09558 -0.0275,0.191259 -0.0429,0.286803 -0.28082,1.769827 -0.6715,3.509819 -1.22215,5.216736 l 1.76165,1.14825 c 0.42502,-1.759252 0.83263,-3.516352 1.13274,-5.302517 0.0368,-0.19662 0.0702,-0.393412 0.10129,-0.590146 4.9124,2.155407 9.0694,3.986554 9.73067,4.320149 1.47521,0.743124 -0.07,-3.873273 1.42989,-3.182753 l -11.10785,-5.262726 c -0.28564,-1.094129 -0.96019,-1.97312 -1.79937,-2.744018 -1.51485,-1.344318 -3.09424,-2.31729 -4.99195,-2.911968 l 0.1602,0.145728 c -0.35956,-0.218485 -0.72945,-0.418446 -1.11983,-0.57981 -0.70547,-0.291608 -1.44248,-0.477223 -2.17816,-0.672827 -0.95542,-0.2214 -1.90148,-0.478924 -2.84272,-0.753442 l 1.53428,1.385962 c 0.93154,0.261709 1.86969,0.497501 2.81119,0.720886 0.96268,0.26438 1.91748,0.53207 2.7957,1.021642 0.06,0.03348 0.165,0.10469 0.25993,0.166915 0.95883,0.736933 1.88195,1.524973 2.58227,2.520778 l 0.9648,0.502811 c 0.0428,0.127109 0.0853,0.254693 0.11627,0.388607 l -19.32802,-9.157064 c 0.16894,-0.508508 0.69799,-2.082005 0.83199,-2.565735 0.52708,-1.90283 0.79077,-3.860833 1.15342,-5.791894 0.55382,-3.148766 1.24426,-6.362046 0.75344,-9.554456 -0.11258,-0.288862 -0.101,-0.649198 -0.33796,-0.866614 -0.52357,-0.480253 -2.30286,-2.042238 -3.61787,-2.333707 -1.1966,-0.265224 -2.4702,-0.07545 -3.67988,-0.207223 -3.4204,-0.07339 -6.84191,-0.0076 -10.26294,-0.04444 -1.52764,-0.01192 -3.05497,-0.01576 -4.58266,-0.01654 z m 37.72948,40.21615 c -0.20986,-0.04744 -0.42007,-0.09519 -0.62994,-0.142629 -1.24094,-0.32232 -2.49368,-0.642371 -3.67884,-1.136364 -0.68288,-0.310221 -1.34859,-0.631071 -2.00091,-1.002522 -0.2271,-0.129312 -0.45293,-0.260443 -0.67645,-0.39584 -0.0907,-0.05492 -0.25638,-0.167476 -0.39739,-0.262001 -0.79807,-0.648198 -1.45314,-1.358969 -1.87482,-2.396752 -0.26957,-0.79537 -0.50831,-1.589583 -0.72037,-2.402438 -0.0216,-0.08301 -0.40118,-1.577155 -0.44287,-1.690336 -0.0786,-0.213492 -0.2043,-0.40649 -0.30644,-0.609782 -1.79374,-1.352722 -2.41657,-2.200437 -4.57078,-2.197283 l 1.60404,1.369425 c 0.42733,-0.0159 0.86752,0.01601 1.28571,0.126093 0.0736,0.108524 0.14518,0.218371 0.19895,0.337447 0.16082,0.356184 0.40305,1.305951 0.49868,1.662946 0.21643,0.808045 0.43977,1.60678 0.6966,2.402956 0.51802,1.401445 1.44677,2.249141 2.61224,3.112987 1.73079,1.336635 3.59214,2.436593 5.58054,3.327961 1.1958,0.483857 2.45818,0.793877 3.70623,1.114663 0.21243,0.04668 0.42474,0.09337 0.63717,0.140041 z M 161.272,42.964593 v -5.18e-4 h -0.001 z m -26.3803,-27.133228 3.79099,1.727543 c 5.3563,-0.07539 10.7141,-0.07817 16.07188,-0.07648 4.21085,0.0085 8.42162,0.02428 12.63231,0.04547 l -3.65353,-1.665531 c -4.14384,0.02133 -8.28779,0.037 -12.4318,0.04548 -5.47024,0.0018 -10.94101,-0.0029 -16.40985,-0.07648 z m -0.28732,4.653979 3.79098,1.72806 c 5.3563,-0.07539 10.71463,-0.07869 16.07241,-0.077 4.21085,0.0085 8.42163,0.02428 12.6323,0.04548 l -3.65404,-1.665532 c -4.14384,0.02133 -8.28779,0.037 -12.4318,0.04548 -5.47024,0.0018 -10.94101,-0.0029 -16.40985,-0.07648 z m -1.47226,4.158403 3.50056,1.731677 c 4.17421,-0.06098 8.35057,-0.05808 12.52585,-0.0708 4.01719,-7.68e-4 8.03404,0.02804 12.05094,0.04961 1.22272,0.0091 2.44522,0.01097 3.668,0.01034 l -3.45767,-1.71049 c -1.20836,-6.61e-4 -2.41632,0.0016 -3.62459,0.01085 -3.95008,0.02167 -7.9001,0.05068 -11.85044,0.04961 -4.27096,-0.01285 -8.5427,-0.01085 -12.81265,-0.0708 z m 57.21563,1.918746 1.52342,1.353922 c 1.17935,0.24039 2.35286,0.529981 3.45819,1.018026 0.26945,0.139951 0.62621,0.654038 0.81338,0.44235 0.0608,0.04682 0.12352,0.09141 0.18242,0.14056 0.96122,0.801918 1.86886,1.670884 2.61741,2.678906 1.01984,1.54164 3.72329,6.854189 4.01991,8.694043 0.0625,0.14179 0.12509,0.283506 0.18759,0.425296 0.41126,1.144561 0.78957,2.304759 1.15031,3.465939 0.29286,1.28257 0.57002,2.568495 0.88729,3.845245 0.29836,1.314513 0.63755,2.625518 1.09192,3.895368 0.60875,1.798296 1.25623,3.16956 2.70578,4.474146 2.03956,1.770205 4.2571,3.429011 6.85281,4.268989 l -1.56063,-1.409732 c -0.92945,-0.287174 -1.81409,-0.69763 -2.64738,-1.196308 0.006,-0.0028 0.006,-0.0109 -0.008,-0.02946 -0.22933,-0.312328 -0.58883,-0.504 -0.88315,-0.756029 -1.43465,-1.265822 -2.08463,-2.599343 -2.70526,-4.355806 -0.4493,-1.261634 -0.77346,-2.564244 -1.08366,-3.865912 -0.32369,-1.271735 -0.59907,-2.554155 -0.87695,-3.836458 -0.34019,-1.172369 -0.74923,-2.324036 -1.13326,-3.482994 -0.0577,-0.144221 -0.11544,-0.288311 -0.17312,-0.43253 -0.2971,-1.347351 -2.73107,-6.557959 -3.43338,-7.751465 -1.83934,-2.786676 -4.87531,-5.269305 -7.45949,-6.580477 -1.13259,-0.476753 -2.32431,-0.770913 -3.5264,-1.005623 z m 25.49043,34.70279 c 12.30967,6.626394 22.56811,17.887904 31.16864,27.678414 3.22812,3.704701 7.53716,9.231436 10.27328,13.301003 3.61501,5.92936 6.46173,8.8746 9.32449,15.22749 6.33165,7.37278 7.69807,17.80709 9.66298,27.45983 -0.1256,1.98863 -0.29096,3.99073 -0.91363,5.89731 -0.23114,0.60607 -0.50004,1.38993 -0.83098,1.95802 -0.74744,1.28314 -1.90883,2.29342 -2.95433,3.31918 -2.58747,1.82748 -5.33103,3.36864 -8.30957,4.47931 -5.21436,2.23718 -10.57097,4.15284 -15.99334,5.8198 -10.07235,2.81038 -20.20706,5.45076 -30.49064,7.37681 -9.4441,1.7859 -18.87601,3.64844 -28.39155,5.02708 -3.75625,0.54075 -9.79347,1.42416 -13.56713,1.91048 -4.26209,0.54927 -4.60437,1.98334 -4.60437,1.98334 l -0.80822,2.6448 c 4.1316,-0.044 3.94826,-1.83158 8.01191,-2.47013 4.70145,-0.73877 8.74279,-1.31525 13.45706,-2.0035 9.61067,-1.33019 19.18584,-2.8758 28.69541,-4.79867 10.2338,-2.16796 20.37883,-4.75253 30.49736,-7.40368 5.52867,-1.57055 10.99192,-3.41696 16.28944,-5.6503 3.04507,-1.06764 5.8335,-2.62904 8.47857,-4.45399 1.05894,-1.0774 2.28282,-2.09231 3.06387,-3.41065 0.35803,-0.60432 0.63016,-1.40568 0.87749,-2.05569 0.63294,-1.93979 0.81513,-3.97619 0.97978,-5.99756 l -0.69453,-3.80649 c -1.02878,-5.63581 -3.86117,-15.2848 -5.78467,-20.69279 -0.52387,-1.30972 -0.99985,-2.63935 -1.57148,-3.92896 -2.83869,-6.40427 -6.88337,-12.18604 -10.5115,-18.1467 -2.76991,-4.108904 -5.6089,-8.159743 -8.86613,-11.90677 C 241.28374,76.514336 228.68204,67.779949 215.46559,60.444662 Z M 185.38526,27.303016 c -0.35147,0.0037 -0.70306,0.01512 -1.0542,0.02274 -0.93443,-0.02101 -1.85986,0.05835 -2.76107,0.307991 -1.42798,1.96306 -0.46129,2.472735 0.42685,3.050977 0.78595,0.484835 2.99079,-2.035062 3.91294,-2.014348 0.69742,-0.0044 1.39681,-0.03173 2.09289,0.02377 1.20231,0.144378 2.31783,0.562325 3.35174,1.19941 -0.23425,-0.183756 -0.95534,-0.709064 -0.7028,-0.551388 0.60244,0.376131 1.38184,1.064096 1.90065,1.53324 0.88626,0.801428 1.73732,1.645054 2.49288,2.572453 0.18317,0.246327 0.38172,0.482136 0.54983,0.738972 0.59699,0.912101 0.95326,1.960145 1.33842,2.971395 l 1.82315,1.048514 c -0.4194,-1.035364 -0.79373,-2.111379 -1.39733,-3.059244 -0.16864,-0.2648 -0.36599,-0.510121 -0.54881,-0.765327 -1.31517,-1.527953 -2.74213,-3.01223 -4.40076,-4.174423 -0.81913,-0.573958 -1.65678,-1.121476 -2.48512,-1.682068 -1.07695,-0.658196 -2.23594,-1.066827 -3.48558,-1.197859 -0.35082,-0.02458 -0.70221,-0.02853 -1.05368,-0.02481 z M 110.06221,27.7495 c -0.54673,-0.01617 -0.61295,0.04751 -1.16634,0.192754 -0.2323,0.103362 -0.48193,0.174602 -0.69711,0.310058 -0.52775,0.332227 -1.09697,0.922323 -1.52859,1.356506 -0.63422,0.63798 -1.21667,1.296677 -1.77819,1.998328 -0.87773,1.071473 -1.39719,2.35701 -1.973,3.600814 -0.33922,0.660085 -0.70234,1.308325 -1.07125,1.952852 0.30932,-1.264205 0.62516,-2.523843 0.89451,-3.797701 0.25449,-0.994902 0.50818,-2.003977 0.63201,-3.025655 0.0251,-0.206706 0.16925,-0.456539 0.0444,-0.623217 -0.48113,-0.642655 -1.16656,-1.103506 -1.74976,-1.655197 -0.0967,-0.03733 -0.1871,-0.103329 -0.29043,-0.111621 -0.55389,-0.04445 -1.667944,0.693923 -2.108393,1.007174 -0.393867,0.311737 -0.651079,0.495692 -1.00769,0.866614 -1.033272,1.074734 -1.784244,2.387301 -2.656686,3.585311 -1.025957,1.529307 -2.040176,3.074272 -2.926437,4.690153 -0.003,-0.318175 -0.0048,-0.636323 -0.0098,-0.954464 -0.04249,-1.143119 -0.138441,-2.285789 -0.484206,-3.383773 -0.21113,-0.724628 -0.418539,-1.454552 -0.66766,-2.167309 -0.02276,-0.0651 -0.431962,-1.149007 -0.473874,-1.184424 -0.621287,-0.524995 -1.345936,-0.913213 -2.018999,-1.369943 -0.111802,0.004 -0.226248,-0.01275 -0.335378,0.01189 -0.621612,0.140248 -1.09235,0.688997 -1.456242,1.167887 -0.468376,0.706112 -0.7887,1.463431 -0.853179,2.319239 -0.163594,1.257482 -0.233195,2.529201 -0.518313,3.769795 -0.260017,1.316396 -0.552476,5.116598 -2.800347,7.565947 l 0.06046,0.03927 c -1.053324,1.231085 -2.054542,1.995186 -3.409095,3.701066 -1.47238,1.867326 -2.546361,4.041283 -3.202387,5.900415 -0.630619,1.656268 -3.040269,6.424787 -5.308203,8.071858 -3.656073,1.273278 -7.331591,2.523278 -10.781771,4.306197 -1.368787,0.722526 -2.75255,1.417756 -4.106727,2.16731 -7.781584,4.307202 -15.227951,9.192982 -22.805326,13.8405 -5.753595,3.615954 -13.271378,7.732162 -19.285644,10.906826 -1.155781,1.33505 -2.233181,2.547969 -2.961576,4.337203 -1.609685,2.449762 -1.179968,4.381477 -1.4288534,6.555677 -0.1931085,1.82698 0.5677034,3.60935 0.7782474,5.44359 0.194641,0.77144 0.0575,0.41178 0.398425,1.08314 3.019923,3.97506 10.776254,14.32792 12.964583,18.78594 3.515542,6.57571 7.240823,13.07456 11.598775,19.1363 3.443257,5.91431 9.427061,4.90664 12.595613,13.46739 0,0 0.3561,-2.41539 -0.147794,-3.45044 -2.016122,-4.14124 -8.256865,-5.89485 -10.501685,-8.98032 -4.360686,-5.99371 -8.11721,-12.42361 -11.470101,-19.02623 -2.056167,-4.35517 -9.708636,-14.54822 -12.451436,-18.53066 -0.406235,-0.59219 -0.241246,-0.26414 -0.47594,-0.99476 -0.301598,-1.80863 -1.119036,-5.52527 -0.93431,-7.33547 0.29325,-1.81627 0.496757,-3.28893 1.251604,-4.97025 0.718908,-1.825233 1.641504,-3.438556 3.333129,-3.958931 0.979275,-0.719582 3.21433,-1.789726 4.650879,-2.713014 2.068989,-1.329761 3.501302,-1.707925 5.57072,-3.037022 2.771682,-1.78013 5.532167,-3.57768 8.302852,-5.359363 7.576655,-4.636855 14.962663,-9.625904 22.793956,-13.835848 1.370709,-0.736865 2.776051,-1.407819 4.164087,-2.111499 3.498757,-1.724351 7.199963,-2.946861 10.890808,-4.174422 2.757321,-2.705168 4.765167,-7.248178 5.388303,-8.910568 1.572395,-3.639585 1.792251,-3.994327 3.490743,-6.30814 1.263269,-0.921367 2.781425,-2.901638 2.798279,-2.913002 1.902073,-2.404896 2.228262,-5.006896 2.739366,-7.610904 0.28035,-1.238044 0.3913,-2.501693 0.56379,-3.755844 0.07082,-0.822864 0.362151,-1.551484 0.814938,-2.231905 0.196887,-0.256889 0.483401,-0.602335 0.808736,-0.82889 0.278905,0.703532 0.470479,1.452884 0.676444,2.17041 0.330126,1.082805 0.434329,2.204593 0.487825,3.328996 0.04137,1.111705 0.02384,2.224127 0.01654,3.336229 -0.0072,0.59318 -0.0067,1.186527 -0.0067,1.779738 l 1.763718,1.081069 c 0.0024,-0.593727 0.0062,-1.187553 0.0041,-1.781286 6.8e-5,-0.296127 -0.0013,-0.592177 -0.0021,-0.888317 l 1.152901,0.764812 c 0.846733,-2.091158 2.088555,-3.997449 3.33158,-5.869926 0.871093,-1.188117 1.660774,-2.468238 2.722314,-3.504179 0.345557,-0.337222 0.633537,-0.532861 1.014407,-0.815454 0.12587,-0.08682 0.37755,-0.249387 0.66507,-0.413929 -0.0111,0.07439 -0.0221,0.148985 -0.0336,0.223243 -0.1192,0.769114 -0.30185,1.524242 -0.49248,2.277897 -0.28792,1.284398 -0.60764,2.559203 -0.93896,3.832841 -0.15641,0.909071 -0.500138,1.713238 -1.097091,2.413805 -0.431821,0.408614 -0.794808,0.882605 -1.169437,1.342038 l 1.650029,1.176673 c 0.388511,-0.450903 0.777309,-0.900353 1.205609,-1.314651 0.35196,-0.416512 0.62518,-0.869241 0.82269,-1.357021 l 1.44384,0.989602 c 0.0921,-0.160962 0.18441,-0.321696 0.27647,-0.482658 0.49254,-0.818322 0.95272,-1.658313 1.37665,-2.514057 0.56078,-1.234607 1.05428,-2.514288 1.9172,-3.580143 0.84914,-1.079784 2.06497,-2.59287 3.25355,-3.268018 0.2145,-0.121843 0.45893,-0.181079 0.68833,-0.271818 0.0352,-0.0069 0.0571,-0.01202 0.0889,-0.0186 -0.93842,2.167046 -2.18362,4.198107 -3.22977,6.31176 -1.28934,2.368938 -2.49641,4.818369 -4.20182,6.924643 l 1.70998,1.219046 c 0.97139,-1.047477 5.52293,-1.775595 6.0787,-2.398821 2.0771,-1.025755 3.63441,-3.059377 5.42395,-4.290177 0.27371,-0.171143 0.45519,-0.28689 0.64854,-0.406693 -0.49205,0.662956 -1.04956,1.281629 -1.61075,1.879989 -1.64089,1.581767 -3.402,3.050371 -4.85448,4.817793 -0.29717,0.343709 -0.60361,0.679881 -0.89142,1.031462 -1.02215,1.248574 -1.89689,2.625402 -3.02617,3.783232 l 1.70222,1.236618 c 1.2626,-1.648587 2.43561,-3.345564 3.78788,-4.926833 1.45956,-1.759318 3.23537,-3.205991 4.89324,-4.765601 1.03307,-1.080452 2.02775,-2.233602 2.7156,-3.56929 0.19117,-0.945306 0.22755,-0.755655 -1.2361,-1.459859 -0.27027,-0.297157 -0.38786,-0.343721 -0.43253,-0.214974 -0.0661,-0.03334 -0.11575,-0.05593 -0.18656,-0.0925 -0.17259,-0.08912 -0.38195,0.07698 -0.56585,0.139526 -0.91694,0.311859 -1.7123,0.827033 -2.5182,1.349789 -2.01955,1.410228 -1.74805,3.642389 -4.73718,4.816242 -0.65839,0.545952 -3.76529,1.122119 -4.17958,1.497068 1.08518,-1.794716 2.01947,-3.678856 3.00343,-5.530412 1.12368,-2.215809 2.47383,-4.317305 3.54759,-6.558257 0.0434,-0.149941 0.11934,-0.293832 0.12971,-0.449584 0.0629,-0.945402 -1.53425,-1.780868 -2.47479,-1.808676 z M 48.1678,161.6142 c 0.188902,1.14542 -0.305433,7.10857 -0.168466,8.49457 0.494295,5.00185 1.828954,10.21308 3.594613,14.91434 2.018559,4.97992 3.840642,10.10212 6.530351,14.77222 0.679098,1.16747 1.572199,2.13629 2.546098,3.05356 l 3.673677,1.84589 c -1.038464,-0.88191 -1.984288,-1.82326 -2.706294,-2.99672 -2.830298,-4.67158 -4.779301,-9.83168 -6.844027,-14.86938 -2.097519,-5.54322 -4.396205,-11.14825 -5.308203,-17.031 z M 102.78255,29.266204 c 0.0759,-0.0064 0.14174,-2.71e-4 0.19379,0.02119 0.0926,0.03835 0.13292,0.149852 0.19947,0.224793 -0.13431,-0.07265 -0.26416,-0.158004 -0.39326,-0.24598 z m 75.90751,0.781347 c -0.21153,0.0051 -0.41508,0.04526 -0.59221,0.15503 -0.11366,0.07043 -0.37154,0.340371 -0.46767,0.437182 -0.49619,0.559388 -0.85343,1.177275 -0.99942,1.912028 -0.0536,0.578046 0.18332,0.997073 0.59221,1.376144 l 1.87172,0.931209 c -0.41511,-0.301495 -0.71066,-0.642989 -0.70384,-1.186491 0.10294,-0.70294 0.45662,-1.280821 0.93225,-1.801957 0.0986,-0.09693 0.28375,-0.295494 0.41393,-0.363285 0.44857,-0.233591 1.05808,-0.0269 1.51928,0.0078 1.80088,0.353528 3.53523,0.955285 5.11752,1.901176 0.31145,0.194567 0.60483,0.422552 0.93121,0.589628 0.15986,0.121804 0.31983,0.243527 0.47336,0.373104 0.77107,0.650819 1.48633,1.365663 2.07015,2.191597 0.1306,0.227217 0.2766,0.446166 0.39171,0.681612 0.36584,0.74834 0.56781,1.589013 0.80409,2.382284 l 1.84174,1.034561 c -0.30733,-0.795263 -0.49595,-1.646608 -0.86764,-2.416905 -0.1189,-0.246401 -0.26559,-0.478094 -0.39843,-0.71727 -1.69327,-2.373259 -4.21691,-3.96214 -6.66109,-5.46995 -1.6201,-0.948116 -3.39478,-1.541599 -5.22759,-1.904276 -0.31381,-0.03207 -0.68873,-0.121739 -1.04128,-0.113172 z m -47.8286,3.449402 4.05505,1.88774 v -5.17e-4 c 4.00128,0.125857 8.01758,0.0031 12.02665,-0.01292 2.2785,-0.0075 4.5565,0.0159 6.83318,0.05529 L 149.774,33.583248 c -2.24386,-0.0154 -4.4875,-0.01404 -6.73137,0.0052 -4.05818,0.02921 -8.14137,0.137963 -12.18117,-0.09147 z m 53.36935,4.666382 c 0.28964,0.11335 0.57386,0.239373 0.85214,0.38809 0.0183,0.0098 0.0552,0.03497 0.0791,0.04909 0.4168,0.370649 0.79442,0.770067 1.09967,1.214911 -0.5879,-0.541303 -1.21709,-1.039651 -1.85415,-1.525487 -0.0594,-0.04085 -0.11762,-0.08505 -0.17673,-0.126608 z m -10.5606,2.272212 c 0.0346,0.01566 0.0699,0.02939 0.10387,0.04651 0.17844,0.08996 0.67154,0.433625 0.50023,0.330729 -0.20353,-0.122248 -0.40329,-0.250532 -0.6041,-0.377239 z m -2.65823,1.037146 c -0.13576,0.813207 -0.28744,1.627304 -0.28474,2.455664 0.038,2.244526 0.32353,4.496612 1.15032,6.599081 0.46415,1.017709 0.51931,1.32058 1.24385,2.187464 1.61387,1.930921 3.9629,3.065243 6.20427,4.091739 2.74184,1.201248 3.81591,1.933281 8.0114,3.241664 0.3778,0.06434 2.67529,2.923334 2.67529,2.923334 l 4.4204,5.57227 c 1.1848,1.544415 4.84736,6.589646 5.94538,8.274431 5.9088,9.066541 -0.1145,-1.074095 6.39547,8.65115 5.83687,7.449386 8.7031,14.349815 13.58315,21.78369 1.03087,1.56818 4.04749,7.18779 5.37073,9.186 2.43004,3.66959 3.13978,3.53939 5.04982,5.83479 0.0727,0.0873 0.15326,0.17208 0.23254,0.26355 3.70185,5.7548 6.74637,8.61756 10.82725,14.16709 l 2.89233,4.22042 2.78743,0.33073 c 2.16613,0.257 -0.4964,-2.78167 -1.88154,-4.4664 -3.22235,-3.97167 -8.58741,-11.94729 -11.96516,-15.78818 -3.90048,-4.48124 -7.37863,-10.46418 -10.40867,-15.60887 -4.79298,-7.34578 -8.56831,-13.669888 -13.5263,-20.905189 -0.89644,-1.386827 -6.24624,-6.63993 -7.13032,-8.034649 -2.08467,-3.288777 -1.89691,-2.984008 -4.39818,-5.986198 -0.41767,-0.168783 -0.83899,-0.392155 -1.24954,-0.636657 l 1.24954,0.636657 -7.61607,-8.51421 c 0,0 -1.92448,-2.387782 -3.25562,-3.051495 -3.24965,-0.91418 -6.70797,-2.200381 -9.41648,-3.400308 -0.77042,-0.292153 -1.4767,-0.714936 -2.2071,-1.088306 -0.25374,-0.300405 -0.59973,-0.518901 -0.85886,-0.816488 -0.73002,-0.838361 -0.79112,-1.132943 -1.27124,-2.124416 -0.84499,-2.067208 -1.1176,-4.290071 -1.156,-6.506065 0.006,-0.811927 0.15464,-1.609754 0.29404,-2.406054 z m -55.30309,5.277199 c -0.30016,0.0043 -0.60091,0.01873 -0.90227,0.04082 -2.50441,0.634522 -4.80001,1.842037 -6.92257,3.288689 -1.04702,0.760831 -1.99007,1.646174 -3.01067,2.440678 -0.16496,0.114147 -0.32957,0.227952 -0.49454,0.342099 l 1.63401,1.231966 c 0.16661,-0.116708 0.3331,-0.233141 0.49971,-0.349851 1.03018,-0.773306 1.93313,-1.687774 2.95641,-2.470131 2.0714,-1.476383 4.34246,-2.706389 6.86417,-3.194638 1.23261,-0.04887 2.44067,0.03077 3.62873,0.386022 l -1.57975,-1.404564 c -0.87886,-0.245348 -1.77273,-0.324112 -2.67323,-0.311092 z M 93.805323,63.072408 c -2.536783,5.088493 -6.635242,9.24048 -10.555943,13.280326 -5.385615,5.528683 -11.557117,10.183508 -17.780828,14.712281 -0.720003,0.510955 -1.43768,1.025152 -2.160075,1.532723 -1.563227,1.098357 -2.13624,1.440971 -3.631303,2.608625 -2.072023,1.618255 -4.031929,3.378042 -6.010483,5.107187 -2.209562,1.99729 -1.170811,1.02739 -3.124875,2.90008 l 2.210718,1.60817 c 1.877769,-1.91514 0.872807,-0.92681 3.025137,-2.95331 1.716545,-1.51259 2.298184,-2.055705 4.088122,-3.506762 2.481683,-2.011836 5.105048,-3.835069 7.650181,-5.763474 6.120397,-4.664136 12.25632,-9.360995 17.699694,-14.820799 3.324317,-3.410247 6.639639,-6.879805 9.520348,-10.683587 0.65046,-0.85889 0.990941,-1.477319 1.506368,-2.352828 z m 35.184417,2.040702 -10.70943,1.806609 -0.59789,-0.847494 c -0.70148,0.55232 -1.34161,1.181549 -1.9482,1.842783 -0.45342,0.07865 -0.90648,0.160258 -1.3591,0.246496 -0.94611,0.154718 -2.15971,0.329306 -3.09179,0.574641 -1.85217,0.487516 -3.45261,1.53643 -5.08186,2.505273 -0.56261,0.329563 -1.13064,0.648396 -1.70119,0.962732 -0.14013,0.05832 -0.28045,0.118747 -0.42065,0.178284 l -3.72949,4.852418 0.42323,0.286803 c -0.21796,-0.007 -0.42946,-0.0064 -0.63975,-0.0052 l -3.870564,5.035868 -4.868955,9.819039 3.327445,2.490287 c 0.764543,-0.484873 1.5563,-0.918276 2.367299,-1.311547 l 1.228349,1.04903 c 0.70893,-0.0447 1.417852,-0.0844 2.127006,-0.122473 -2.077193,0.78722 -4.17967,1.504781 -6.34742,1.983343 l 1.046964,0.84491 c -0.825796,-0.02553 -1.651259,-0.06493 -2.476336,-0.125058 l 3.82819,3.269576 -1.076936,-0.37155 c -0.651261,0.61444 -1.168042,1.29892 -1.477428,2.15284 -0.687477,1.79005 -1.30325,3.62793 -1.612304,5.52472 0.04998,0.5561 0.03097,0.88021 0.2682,1.3994 0.433104,0.94786 1.304232,1.67284 1.756997,2.61224 0.780309,1.52141 1.368682,3.18403 2.431894,4.53513 l 1.037661,0.1757 c 0.02066,0.44493 0.04143,0.88971 0.06563,1.33325 0.312971,4.43216 0.549053,8.97268 2.015382,13.1563 1.127066,3.13693 6.186966,12.54932 4.939236,13.10618 l 1.24798,-0.55656 c 1.37357,-0.61301 -2.90372,-8.00671 -4.04833,-11.21533 -1.48152,-4.17513 -1.79383,-8.68698 -2.102712,-13.11858 -0.04907,-0.78803 -0.08932,-1.57777 -0.124542,-2.36781 l 1.143594,0.19378 c -0.48071,-0.48722 -0.86301,-1.04751 -1.198887,-1.63917 -0.0626,-2.10244 -0.0508,-4.20645 0.0987,-6.30039 l 4.337197,3.70416 c 3.21466,-0.20268 6.43154,-0.33339 9.6511,-0.42891 1.16885,-0.0408 2.33768,-0.0603 3.50676,-0.0718 0.0789,0.012 0.15821,0.0209 0.23719,0.032 -1.20708,0.0779 -2.41339,0.17586 -3.61838,0.30385 -1.75606,0.20124 -3.95437,0.40249 -5.69268,0.7953 -2.1503,0.48592 -4.20966,1.40167 -6.1221,2.47841 l 2.18901,1.62109 c -0.0625,-0.004 -0.12506,-0.007 -0.18759,-0.0114 l 5.11494,4.36821 c 2.18675,-0.13788 4.37447,-0.24022 6.56342,-0.32298 l 2.2562,1.92701 c 3.21465,-0.20268 6.43152,-0.3334 9.65109,-0.42891 2.69177,-0.094 5.38445,-0.0889 8.07702,-0.0811 -1.65713,0.62778 -3.51591,0.63687 -5.25446,0.72813 -3.87903,0.048 -7.75473,0.25505 -11.63391,0.31005 -3.41056,0.0722 -6.82453,0.16197 -10.2309,-0.0863 l 5.11493,4.36872 c 3.21465,-0.20268 6.43153,-0.33288 9.65109,-0.4284 3.96241,-0.13833 7.92634,-0.0639 11.88971,-0.0786 2.01428,-0.0989 4.20118,-0.0735 6.04304,-1.03611 0.33516,-0.17515 0.63281,-0.41366 0.9493,-0.62063 1.01569,-0.72461 1.76394,-1.72635 2.57556,-2.65617 l -1.20355,-0.85731 c 0.67744,-0.14249 1.33577,-0.35286 1.95492,-0.67645 0.33515,-0.17515 0.63281,-0.41417 0.9493,-0.62115 1.01569,-0.72461 1.76393,-1.72635 2.57555,-2.65617 l -2.25206,-1.60455 c 0.38829,-0.12182 0.76754,-0.27267 1.13275,-0.46354 0.33515,-0.17515 0.63281,-0.41417 0.94929,-0.62115 1.01379,-0.72325 1.76104,-1.72265 2.57091,-2.651 0.55094,-0.22821 1.10187,-0.4577 1.65261,-0.68316 l -4.26847,-3.36827 c 0.087,-0.0357 0.17462,-0.0698 0.26148,-0.10594 1.98882,-0.76211 3.82573,-1.83642 5.69423,-2.84634 -0.22763,2.07524 -0.48295,4.14682 -0.78135,6.21358 -0.57171,4.00558 -1.31208,7.97822 -2.23294,11.90211 -0.86314,3.34361 -2.04627,6.57323 -3.1905,9.80767 -1.05662,2.77542 -1.99518,5.63393 -3.36724,8.24291 -0.3489,0.68106 -0.82536,1.24445 -1.31413,1.79938 l 2.13372,1.71204 c 0.12436,-0.1491 0.24712,-0.29932 0.36742,-0.45166 0.83755,1.03035 1.77029,1.97637 2.82101,2.81069 1.32364,1.03384 2.70269,2.02193 4.30517,2.57865 l 2.90059,-0.7214 c -1.65168,-0.45566 -3.06768,-1.4297 -4.42195,-2.44223 -1.51666,-1.19136 -2.79505,-2.61144 -3.84162,-4.22352 -0.0864,-0.16347 -0.1725,-0.32694 -0.2589,-0.49041 l -0.0749,0.0124 c 1.06769,-2.36705 1.85904,-4.88283 2.79724,-7.31429 1.15675,-3.23825 2.40365,-6.45101 3.23391,-9.81748 0.83938,-3.71243 1.49802,-7.47293 2.07481,-11.24635 l 0.88264,0.92294 c 1.03925,-1.58705 2.61617,-3.92515 4.31291,-6.48642 0.7751,-1.57163 1.55187,-3.34862 1.53117,-5.33817 -0.20935,-1.09652 -0.74362,-1.93888 -1.39784,-2.63344 0.11347,-0.13374 0.22649,-0.26813 0.34158,-0.39997 l -2.72645,-1.942525 c 0.27411,-0.317856 0.5449,-0.638869 0.81959,-0.954983 0.17581,-0.07299 0.35005,-0.150759 0.52038,-0.239778 0.33515,-0.175149 0.6328,-0.414171 0.9493,-0.621152 1.01568,-0.724609 1.76393,-1.726346 2.57555,-2.656168 l -0.94568,-0.673859 c 1.62915,0.03416 3.25959,-0.01043 4.88911,-0.08888 l -1.32189,-4.082954 c -0.18004,0.01336 -0.35996,0.02879 -0.54002,0.04134 0.14005,-0.09739 0.27867,-0.196713 0.42117,-0.289907 0.0105,-0.0075 0.02,-0.01619 0.0305,-0.02377 l -3.17707,-9.811803 -6.04769,-4.346506 4.00595,-0.03307 -11.37656,-6.959782 -7.14324,-1.700671 c -0.49716,-0.0065 -0.99429,-0.01252 -1.49138,-0.02377 -3.39207,-0.10311 -6.78633,-0.287591 -10.13788,-0.854728 -0.6913,-0.11434 -1.38453,-0.23894 -2.07894,-0.36122 z m 27.98744,50.48219 c -1.45129,2.21626 -1.82057,2.9206 0.293,0.30645 z M 144.81461,70.36292 c 0.37879,0.01384 0.75763,0.03123 1.13637,0.04289 2.6095,0.06261 5.21942,0.07374 7.82949,0.09147 -1.13732,0.178985 -2.31028,0.207155 -3.4339,0.266133 -1.64969,0.02043 -3.29896,0.07103 -4.94802,0.125058 z m -10.53114,0.593762 c 0.73769,0.04082 1.47479,0.09517 2.21124,0.162263 -0.65072,0.01204 -1.30163,0.01698 -1.95234,0.02222 z m -13.46326,2.275829 c 0.47113,-0.003 0.94225,0.0042 1.44177,0.0067 0.86621,0.0097 1.73111,0.03656 2.59519,0.07545 -0.26777,0.02363 -0.53548,0.04821 -0.80305,0.07441 -0.32452,0.0154 -0.65053,0.03031 -0.96893,0.04702 -1.33195,0.01648 -2.66363,0.05368 -3.99511,0.09509 0.0605,-0.07726 0.11951,-0.15656 0.18035,-0.233061 0.0359,-0.003 0.0716,-0.0075 0.10749,-0.01033 0.49989,-0.03899 0.97116,-0.05231 1.44229,-0.0553 z m -11.7998,4.644162 c -0.26015,0.229876 -0.50605,0.478822 -0.74104,0.741556 -0.74681,-0.192132 -1.49711,-0.369118 -2.25361,-0.517798 0.0732,-0.04983 0.14731,-0.09852 0.2217,-0.146761 l 0.0878,0.07493 c 0.8949,-0.05642 1.78984,-0.105899 2.6851,-0.151929 z m 23.55567,1.196309 0.40204,0.343648 c -0.37128,-0.01786 -0.78062,-0.03239 -1.27175,-0.04393 -0.0844,-0.0019 -0.16879,-4.79e-4 -0.25322,-0.0021 0.37226,-0.106439 0.74709,-0.204153 1.12293,-0.297656 z m -11.19053,0.492476 0.15451,0.123508 c -0.10806,0.128135 -0.21609,0.255987 -0.32918,0.379304 -0.57408,0.08186 -1.14738,0.167539 -1.71979,0.260451 -0.41754,0.07097 -0.83612,0.145624 -1.25418,0.21704 1.03673,-0.363667 2.08784,-0.687422 3.14864,-0.980303 z m -16.41192,1.922362 c 0.39808,0.0029 0.80516,0.02514 1.21078,0.05323 -0.13507,0.210852 -0.27177,0.424821 -0.40617,0.630968 -0.11573,0.216183 -0.2053,0.380812 -0.30903,0.573093 -1.21318,0.03745 -2.42646,0.07116 -3.64009,0.08837 -0.42778,0.009 -0.85578,0.01692 -1.28364,0.02584 1.00697,-0.7262 2.1457,-1.220664 3.46697,-1.337387 0.30802,-0.02721 0.63089,-0.03653 0.96118,-0.03411 z m 3.99924,0.336931 c 0.48983,0.07495 0.97689,0.161362 1.46141,0.259416 -0.67183,0.164256 -1.34052,0.341183 -2.00556,0.530202 0.17863,-0.265039 0.35844,-0.528588 0.54415,-0.789618 z m 20.35431,1.434539 c -0.95592,0.206055 -1.91238,0.409906 -2.87062,0.605132 0.12227,-0.13044 0.24099,-0.264375 0.35915,-0.398944 0.83583,-0.08658 1.67312,-0.152649 2.51147,-0.206188 z m -4.41626,1.923397 0.52761,0.422196 c -0.5428,0.06068 -1.08477,0.125552 -1.62677,0.19327 0.1638,-0.06908 0.32625,-0.142214 0.48524,-0.225309 0.21498,-0.11235 0.41487,-0.250621 0.61392,-0.390157 z m 32.98868,0.147278 c 1.09887,0.02947 2.19787,0.04692 3.29696,0.05323 -0.26107,0.159782 -0.51522,0.333174 -0.79117,0.465087 -0.44788,0.214101 -0.91404,0.37411 -1.39165,0.495578 l -1.10122,-0.930693 c -0.004,-0.0278 -0.009,-0.05541 -0.0129,-0.0832 z m -19.46083,0.567406 0.42892,0.365869 c -0.36973,-0.06977 -0.74058,-0.134131 -1.11105,-0.199469 0.2274,-0.05561 0.45457,-0.111591 0.68213,-0.1664 z m -37.83179,1.008208 c -0.11541,0.02676 -0.23106,0.05253 -0.34624,0.0801 -1.3479,0.405765 -2.691013,0.833406 -4.02714,1.283126 0.138592,-0.274847 0.280921,-0.547762 0.433565,-0.815454 0.07194,-0.126159 0.137067,-0.235736 0.20257,-0.346231 1.245291,-0.07761 2.491264,-0.143261 3.737245,-0.201539 z m 27.78641,4.073137 c 0.45475,0.07308 0.90958,0.146089 1.36271,0.220657 0.5967,0.117824 1.1952,0.222017 1.79421,0.319878 -0.40317,0.0075 -0.80618,0.01561 -1.20924,0.02687 -0.65378,-0.246832 -1.3219,-0.41226 -1.99884,-0.508494 0.0173,-0.01945 0.034,-0.0394 0.0512,-0.05891 z m -17.80666,5.249809 0.66352,0.515213 c -0.83228,0.06662 -1.66569,0.114636 -2.5001,0.126089 0.17589,-0.06595 0.35107,-0.133852 0.5271,-0.199469 0.43358,-0.156041 0.8703,-0.30307 1.30948,-0.441833 z m 18.46967,1.978173 c 0.5057,0.03616 1.0117,0.06895 1.51774,0.100769 -0.0472,0.02975 -0.0948,0.05873 -0.14211,0.08837 -0.37968,0.0048 -0.7593,0.0091 -1.13895,0.01085 z m -27.97297,3.202912 2.82774,2.41484 c -1.07064,-0.21836 -2.13367,-0.47014 -3.1843,-0.76843 0.10343,-0.48326 0.20893,-0.96607 0.30695,-1.45056 0.0162,-0.0653 0.0334,-0.13055 0.0496,-0.19585 z m -2.341974,0.65215 c -0.137057,0.58173 -0.267981,1.16499 -0.374137,1.75442 -0.0089,0.0495 -0.01613,0.0993 -0.02481,0.14883 -0.210462,-0.008 -0.421065,-0.0145 -0.631486,-0.0248 0.07056,-0.1808 0.137459,-0.36369 0.209807,-0.54312 0.197932,-0.51114 0.476491,-0.94652 0.820621,-1.33532 z m 61.608124,0.29818 c -0.0633,1.6092 -0.75752,3.10219 -1.35444,4.41627 -0.74527,1.43124 -1.54624,2.79542 -2.38383,4.11292 0.272,-2.15972 0.51467,-4.32325 0.73173,-6.49056 0.30607,-0.1071 0.60621,-0.23192 0.89711,-0.38395 0.33515,-0.17515 0.63332,-0.41418 0.94981,-0.62115 0.42601,-0.30393 0.80336,-0.65784 1.15962,-1.03353 z m -59.67336,0.93586 0.80667,0.72864 c -0.31837,-4e-5 -0.63665,-0.003 -0.95498,-0.006 0.0486,-0.24123 0.0972,-0.48229 0.14831,-0.72295 z m -59.434095,0.6103 c 1.943211,2.35993 3.923797,4.69371 5.94279,6.98975 4.710316,4.82083 9.587312,9.47241 14.30197,14.29008 3.362055,3.70838 6.96355,7.23523 9.966314,11.25461 1.219274,1.63207 2.310683,3.35843 3.426148,5.06068 0.538845,0.83309 1.077595,1.66598 1.61644,2.49907 1.493668,2.21231 4.142105,6.50394 5.225005,8.93279 0.437901,1.01038 0.877358,2.02002 1.321366,3.02772 l 2.510957,1.39733 c -0.46237,-1.01995 -0.92093,-2.0415 -1.381311,-3.06235 -1.094681,-2.38691 -4.122539,-6.78949 -5.40949,-9.08058 -0.54682,-0.83737 -1.093896,-1.67462 -1.640727,-2.51199 -1.174355,-1.82214 -2.109642,-3.34753 -3.40651,-5.07773 -3.056488,-4.07776 -6.767864,-7.60997 -10.169922,-11.38741 -4.60561,-4.74403 -9.318164,-9.37969 -13.951603,-14.09578 -1.962502,-2.23612 -3.898641,-4.51099 -5.716963,-6.86367 z m 56.169181,0.81132 0.718301,0.6134 c -0.280781,2.04569 -0.393433,4.1141 -0.411861,6.18567 -0.589211,-0.86376 -1.181023,-1.68578 -1.331185,-2.7833 0.160496,-1.37523 0.550132,-2.71325 1.024745,-4.01577 z m 57.681744,0.15761 c -0.003,0.0301 -0.006,0.0603 -0.009,0.0904 l -0.10283,-0.0791 c 0.0374,-0.004 0.0748,-0.007 0.11213,-0.0114 z m -55.03643,2.10116 1.46761,1.25367 c 2.16679,-0.13661 4.33453,-0.23851 6.50348,-0.32091 0.96818,0.18393 1.93622,0.36918 2.90576,0.54622 -0.54017,0.0127 -1.08028,0.0285 -1.62057,0.0362 -3.13514,0.0664 -6.2733,0.1445 -9.405624,-0.0357 0.04177,-0.49381 0.09079,-0.98715 0.149344,-1.4795 z m 38.03385,2.34715 c 0.53157,0.002 1.06317,7.4e-4 1.59474,0.002 l 2.36368,1.93994 c -0.55023,0.1537 -1.10439,0.29444 -1.66657,0.40824 l -0.95808,-0.76326 c 0.18078,0.008 0.36167,0.0152 0.5426,0.0264 z m -19.68355,7.00784 1.29449,1.10536 c -1.76997,0.0589 -3.54006,0.117 -5.31078,0.14211 -0.85264,0.018 -1.70511,0.037 -2.55798,0.0517 -0.0654,10e-4 -0.13093,10e-4 -0.19638,0.002 2.17016,-0.72605 4.51613,-1.01831 6.77065,-1.30121 z m 21.48965,1.27951 h 5.1e-4 c 0.42361,7.9e-4 0.84713,7.8e-4 1.27073,5.1e-4 -0.17596,0.11087 -0.35269,0.21947 -0.54002,0.30903 -0.46251,0.22109 -0.94522,0.3841 -1.43919,0.50694 0.20188,-0.2229 0.3979,-0.45134 0.59273,-0.68109 0.0384,-0.0453 0.0769,-0.0901 0.11524,-0.13539 z m 89.85549,23.11435 c -3.98276,-0.0116 -7.95993,0.18436 -11.8954,0.90588 -9.83594,1.42978 -19.72394,2.46544 -29.54031,4.02405 -9.20316,1.68236 -18.33834,3.70814 -27.51615,5.52111 -3.736,0.73093 -7.47282,1.51041 -11.11974,2.61276 l 3.27319,2.6417 c 3.50249,-1.26253 7.17241,-2.05366 10.81019,-2.82464 9.04935,-2.06131 18.12093,-4.02981 27.24433,-5.73556 9.84954,-1.58097 19.77368,-2.63009 29.66641,-3.89796 5.32951,-0.87265 10.71704,-0.83691 16.08997,-0.56999 2.23111,0.12983 8.99602,0.65082 11.23033,0.70694 l 2.23965,-1.70843 v -1.51205 c -3.35454,3.05041 -14.30669,-0.0172 -16.49925,-0.0946 -1.32746,-0.0382 -2.65563,-0.0654 -3.98322,-0.0692 z m -151.646035,0.44648 2.233972,1.98541 c 0.587637,0.1665 0.692637,0.17995 1.339454,0.45992 2.645775,1.14517 5.177784,2.59416 7.744229,3.90209 2.921159,1.46681 5.903066,2.8488 9.024771,3.83852 1.391949,0.44131 2.165169,0.60053 3.551719,0.93018 l -2.06447,-1.84743 c -1.443254,-0.33413 -2.016656,-0.43934 -3.478342,-0.90227 -3.090124,-0.97867 -6.039643,-2.34907 -8.930722,-3.80132 -6.130909,-3.16503 0.921526,0.48201 -4.700487,-2.44378 -1.524203,-0.79322 -3.04756,-1.67416 -4.720124,-2.12132 z m 22.587765,1.39733 c -0.1524,0.10469 -0.30494,0.20951 -0.45733,0.3142 -1.675297,0.94208 -3.4666,1.60679 -5.362985,1.95802 -1.669521,0.2682 -3.375879,0.47316 -5.050337,0.11006 l 2.233972,1.98541 c 1.6778,0.25074 3.357745,0.0161 5.010031,-0.28525 1.932384,-0.36839 3.755269,-1.06063 5.481829,-1.98644 0.16272,-0.10811 0.32512,-0.21642 0.48783,-0.32453 z m 39.18675,26.21029 -2.71197,0.39791 c -1.22252,0.17931 -5.02471,3.09452 -3.91966,4.46071 l 2.51664,3.11143 c 0,0 -0.17646,-2.28196 0.23616,-3.30729 0.75476,-1.87551 1.70289,-2.45773 3.87883,-4.66276 z m -48.528296,2.24069 c 0,0 -0.128836,0.64152 0.07596,0.82837 -0.227733,-0.13813 0.386056,0.36851 0.553455,0.57568 0.260699,0.32262 0.512514,0.65508 0.727604,1.00975 1.167651,1.92529 1.814208,4.13513 2.536277,6.24614 0.859301,2.62713 1.475537,5.31937 2.067576,8.01553 l 3.366204,1.96215 c -0.62401,-2.71102 -1.272932,-5.41666 -2.098064,-8.07548 -0.648769,-2.0896 -1.218208,-4.281 -2.262396,-6.22339 -0.007,-0.0126 -0.96415,-1.54225 -1.12086,-1.66295 -1.237279,-0.95297 -2.563831,-1.7838 -3.845761,-2.6758 z M 187.1805,182.0853 c -3.3323,2.32871 -6.64137,4.68377 -9.85521,7.17424 -3.94675,3.17395 -7.35313,6.92131 -10.72183,10.681 -0.28786,0.34078 -0.57565,0.68139 -0.86351,1.02216 l 3.32124,2.3611 c 0.27087,-0.34778 0.542,-0.69558 0.81287,-1.04335 3.21106,-3.85593 6.5489,-7.63014 10.53786,-10.71356 3.28117,-2.43517 6.59401,-4.83597 10.09758,-6.94531 z m -6.57117,11.98997 c 1.39266,2.43306 1.43845,12.54689 2.65875,18.73529 2.04892,10.23149 3.70451,20.53781 5.37331,30.83687 1.14841,6.77928 2.09545,13.63393 4.08037,20.23288 0.18854,0.49518 0.37732,0.99001 0.56586,1.48518 l 3.5171,1.97352 c -0.21351,-0.49808 -0.42675,-0.99591 -0.64027,-1.49396 -2.26227,-6.61066 -3.27491,-13.55628 -4.50102,-20.41271 -1.72306,-10.28814 -3.33641,-20.59666 -5.35058,-30.83326 -1.08672,-6.03797 -0.52186,-16.21682 -3.05201,-18.31981 z M 51.789284,195.2106 c 0.259379,6.50968 0.2579,13.02521 0.26045,19.53886 -0.120308,6.78214 -0.125748,13.55369 0.65009,20.29798 0.550698,5.11338 1.89761,10.06749 3.301605,14.99702 1.098267,3.46586 2.405947,6.84954 3.468524,10.32702 0.695669,2.33115 1.486299,4.63181 2.252575,6.94014 l 3.506764,1.9942 c -0.799484,-2.30907 -1.611604,-4.61431 -2.312004,-6.95617 -0.220321,-0.76623 -0.777356,-2.74202 -1.050583,-3.55223 -0.768943,-2.2802 -1.801038,-4.47026 -2.453079,-6.79339 -1.470322,-4.91005 -2.818498,-9.86143 -3.386357,-14.97273 -0.872633,-6.77108 -0.996247,-13.5798 -0.910022,-20.40237 0.0024,-6.40716 1.387303,-16.43706 -1.157036,-19.12493 z m 66.673446,8.12095 c 0.0727,0.8551 0.12111,1.71171 0.15658,2.56884 a 0.21360179,0.21360179 0 0 0 -0.0357,0.11833 0.21360179,0.21360179 0 0 0 0.0455,0.13126 c 0.0779,2.04777 0.0755,4.09908 0.0842,6.14743 -0.14224,4.41332 0.64216,8.76729 1.19476,13.12685 0.59203,5.59051 1.05592,11.19088 1.2976,16.80776 0.18125,4.49088 0.19212,8.98656 0.16588,13.48031 -0.11759,3.27098 0.10827,6.52725 0.32866,9.78752 0.0195,0.90839 0.13357,1.80548 0.2806,2.70009 l 5.64049,3.30109 c -0.22203,-0.89405 -0.38723,-1.79425 -0.45011,-2.71611 -0.36796,-3.28001 -0.70378,-6.56526 -0.57309,-9.87227 -0.0575,-4.53907 -0.10709,-9.07938 -0.33021,-13.61415 -0.33144,-5.61992 -0.85271,-11.22194 -1.28003,-16.83515 -0.0739,-0.85351 -0.12996,-1.70879 -0.22169,-2.56057 -0.3723,-3.45717 -1.01181,-6.90174 -0.81907,-10.39781 0.0124,-2.88626 -0.012,-5.78148 0.25063,-8.65839 z m 47.37385,0.87023 a 0.21360179,0.21360179 0 0 0 -0.21342,0.21343 0.21360179,0.21360179 0 0 0 0.21342,0.21342 0.21360179,0.21360179 0 0 0 0.21394,-0.21342 0.21360179,0.21360179 0 0 0 -0.21394,-0.21343 z m 31.00328,64.67926 a 0.21360179,0.21360179 0 0 0 -0.21342,0.21342 0.21360179,0.21360179 0 0 0 0.21342,0.21342 0.21360179,0.21360179 0 0 0 0.21394,-0.21342 0.21360179,0.21360179 0 0 0 -0.21394,-0.21342 z m -132.031216,3.20704 a 0.21360179,0.21360179 0 0 0 -0.213424,0.21342 0.21360179,0.21360179 0 0 0 0.213424,0.21394 0.21360179,0.21360179 0 0 0 0.213942,-0.21394 0.21360179,0.21360179 0 0 0 -0.213942,-0.21342 z" />
      <path transform="matrix(0.26458333,0,0,0.26458333,7.5332936,10.034377)" d="M 521.83594 0 C 516.06199 -0.0029 510.28761 0.0061125 504.51367 0.0078125 C 494.44531 0.062842496 484.26821 -0.1469232 474.33984 1.6191406 C 466.27652 3.5719926 463.15566 4.76158 460.38281 12.185547 C 457.40779 19.470254 456.06004 27.090585 454.16797 34.648438 C 452.23713 42.741011 450.3491 50.836858 448.21484 58.886719 C 446.23425 67.129122 443.89951 75.292576 442.42969 83.634766 C 441.74632 86.773686 441.01315 90.37054 440.13672 93.46875 C 437.89991 101.37645 434.39169 108.89762 431.5293 116.61914 C 428.29319 125.86926 425.41971 135.21583 422.79102 144.62109 L 417.04102 140.98242 C 417.06752 142.56879 415.40988 143.58599 414.39844 144.57422 C 409.07018 148.71143 403.32258 152.21505 397.33203 155.31641 C 389.0987 159.72013 380.75035 164.26181 371.5918 166.41016 L 376.00391 170.01562 C 368.82869 174.21317 361.6193 178.34946 354.29688 182.28711 C 344.86608 187.16128 335.29855 191.95684 324.99023 194.69727 L 331.14453 199.69922 C 341.11642 196.28429 350.46074 191.40018 359.78125 186.5332 C 367.21335 182.56814 374.56022 178.44615 381.93945 174.38477 L 377.96289 171.33008 C 386.72904 168.40673 394.93734 164.03169 403.12891 159.80273 C 409.24615 156.76964 415.10863 153.27526 420.58203 149.19531 C 421.0096 148.8635 421.42399 148.51901 421.82031 148.16211 C 420.5034 152.99136 419.23949 157.83216 418.0293 162.68555 C 416.58027 168.43107 415.07895 174.19717 414.28125 180.05859 C 414.23395 180.40381 413.48172 185.72188 414.40234 186.53906 C 417.46028 189.25219 421.29954 191.12117 424.74805 193.41211 C 431.4292 195.15191 438.46983 194.31069 445.33398 194.44727 C 458.59086 194.30663 471.8497 194.27717 485.10742 194.26367 C 501.71806 194.29277 518.33137 194.43772 534.93359 194.94922 C 541.75409 195.20218 548.56299 195.51901 555.37695 195.88867 C 557.31664 195.99386 564.2342 196.38958 566.33203 196.40039 C 567.47881 196.40639 568.62414 196.29367 569.76953 196.24023 C 570.74404 196.08043 571.74806 196.03045 572.69336 195.76172 C 576.91906 194.56053 577.53108 190.81035 577.59375 187.29102 C 577.61645 182.48908 577.59177 177.68656 577.63477 172.88477 C 577.79465 165.56154 578.11217 158.24014 578.90039 150.94727 C 579.78839 142.91066 581.2462 134.93364 581.95508 126.89258 L 572.48828 121.60352 C 572.54628 129.74137 571.06243 137.84357 570.125 145.92773 C 569.31296 153.17682 568.68543 160.44559 568.46289 167.73047 C 568.31775 172.53493 568.3477 177.34096 568.38477 182.14648 C 568.05746 187.72155 567.73539 189.1904 561.44531 189.96094 C 550.04599 190.11061 538.64062 189.28566 527.24414 188.91406 C 510.70583 188.39731 494.15644 188.49094 477.61133 188.42188 C 464.17874 188.34878 450.74659 188.32508 437.31445 188.19922 C 432.6972 187.86544 427.90293 188.47276 423.24219 188.1543 C 423.17029 187.15649 423.23615 186.14851 423.31055 185.15039 C 423.75499 179.25994 425.22096 173.40826 426.48438 167.63867 C 430.00629 152.08125 434.4909 136.7312 439.91211 121.63867 C 442.81055 113.94482 446.44404 106.48679 448.79297 98.623047 C 449.79882 95.255877 450.42749 92.165073 451.19141 88.751953 C 452.79658 80.458953 455.10372 72.312332 457.11133 64.101562 C 459.25542 56.042786 461.12292 47.930566 462.99219 39.814453 C 464.87716 32.326722 466.28501 24.777808 469.30859 17.585938 C 471.86752 10.749411 475.20886 9.4556904 482.60547 7.7304688 C 492.4155 6.1071878 502.44427 6.197322 512.37891 6.125 C 523.91645 6.07579 535.45273 6.2130256 546.99023 6.1660156 C 559.91637 6.2290156 572.85067 5.9789541 585.77148 6.3613281 C 589.32501 6.8266261 593.10781 6.4408578 596.72461 6.8398438 C 596.97278 7.3125454 597.14226 7.6371744 597.5 8.3496094 C 600.14506 20.255272 597.48931 32.457374 595.4043 44.269531 C 593.7076 54.90649 591.24644 65.375636 587.72461 75.628906 C 587.62352 75.929226 587.52809 76.23075 587.42773 76.53125 L 585.53516 75.634766 L 569.95508 73.402344 L 556.01172 68.53125 C 544.82998 68.47305 533.64669 68.478181 522.46484 68.550781 C 502.24195 68.661181 481.89701 69.072218 461.76562 68.205078 L 481.9707 75.339844 C 501.91013 75.815534 521.9261 75.349862 541.9043 75.289062 C 549.97714 75.268866 558.04661 75.322761 566.11523 75.400391 L 578.53125 91.138672 C 579.10986 91.440132 580.5235 92.099776 582.30273 92.914062 C 581.99804 93.950022 581.68957 94.986008 581.39062 96.023438 L 590.46289 101.37891 C 590.84621 99.948994 591.23316 98.520007 591.62305 97.091797 C 609.71658 105.15022 641.67163 119.12224 669.2168 131.19727 C 669.163 131.55851 669.11293 131.92014 669.05469 132.28125 C 667.99333 138.97036 666.51675 145.54671 664.43555 151.99805 L 671.09375 156.33789 C 672.70012 149.68875 674.24072 143.04773 675.375 136.29688 C 675.51414 135.55375 675.64042 134.80997 675.75781 134.06641 C 694.32435 142.21283 710.03584 149.1337 712.53516 150.39453 C 718.11076 153.20319 712.27046 135.75539 717.93945 138.36523 L 675.95703 118.47461 C 674.87745 114.33932 672.32796 111.01715 669.15625 108.10352 C 663.43083 103.02263 657.46151 99.345256 650.28906 97.097656 L 650.89453 97.648438 C 649.53556 96.822668 648.13754 96.066911 646.66211 95.457031 C 643.99576 94.354891 641.21022 93.653352 638.42969 92.914062 C 634.81866 92.077276 631.243 91.103956 627.68555 90.066406 L 633.48438 95.304688 C 637.00516 96.293824 640.55096 97.185007 644.10938 98.029297 C 647.74782 99.028527 651.35652 100.04028 654.67578 101.89062 C 654.90273 102.01714 655.29943 102.2863 655.6582 102.52148 C 659.28214 105.30674 662.77109 108.28516 665.41797 112.04883 L 669.06445 113.94922 C 669.22605 114.42963 669.38679 114.91184 669.50391 115.41797 L 596.45312 80.808594 C 597.09163 78.886674 599.09119 72.939598 599.59766 71.111328 C 601.58974 63.919528 602.58638 56.519202 603.95703 49.220703 C 606.05021 37.319856 608.65976 25.175177 606.80469 13.109375 C 606.37916 12.017613 606.42294 10.655713 605.52734 9.8339844 C 603.54849 8.0188544 596.82364 2.1152869 591.85352 1.0136719 C 587.33094 0.011250852 582.51733 0.72849671 577.94531 0.23046875 C 565.01781 -0.046911238 552.08612 0.201849 539.15625 0.0625 C 533.38249 0.017450004 527.6099 0.00292 521.83594 0 z M 664.43555 151.99805 C 663.64238 151.81875 662.84787 151.63827 662.05469 151.45898 C 657.36453 150.24076 652.62973 149.03112 648.15039 147.16406 C 645.56942 145.99157 643.05335 144.77891 640.58789 143.375 C 639.72959 142.88626 638.87605 142.39065 638.03125 141.87891 C 637.68858 141.67134 637.06224 141.24593 636.5293 140.88867 C 633.51298 138.43879 631.0371 135.75241 629.44336 131.83008 C 628.42451 128.82396 627.52219 125.82221 626.7207 122.75 C 626.6391 122.43626 625.20441 116.7891 625.04688 116.36133 C 624.74981 115.55443 624.27471 114.82499 623.88867 114.05664 C 617.10918 108.94399 614.75517 105.74003 606.61328 105.75195 L 612.67578 110.92773 C 614.2909 110.86763 615.95462 110.98824 617.53516 111.4043 C 617.81325 111.81447 618.08389 112.22964 618.28711 112.67969 C 618.89493 114.0259 619.81045 117.61557 620.17188 118.96484 C 620.98988 122.01887 621.834 125.03771 622.80469 128.04688 C 624.76256 133.34367 628.2728 136.54757 632.67773 139.8125 C 639.2193 144.86435 646.25431 149.02168 653.76953 152.39062 C 658.28909 154.21937 663.0603 155.3911 667.77734 156.60352 C 668.58023 156.77995 669.38267 156.95642 670.18555 157.13281 L 664.43555 151.99805 z M 572.48828 121.60352 L 572.48828 121.60156 L 572.48438 121.60156 L 572.48828 121.60352 z M 472.7832 19.052734 L 487.11133 25.582031 C 507.35562 25.297093 527.6056 25.286582 547.85547 25.292969 C 563.7705 25.325099 579.68522 25.384719 595.59961 25.464844 L 581.79102 19.169922 C 566.12926 19.250542 550.46709 19.309747 534.80469 19.341797 C 514.12977 19.348597 493.45283 19.330836 472.7832 19.052734 z M 471.69727 36.642578 L 486.02539 43.173828 C 506.26967 42.88889 526.5216 42.876428 546.77148 42.882812 C 562.6865 42.914942 578.60128 42.974563 594.51562 43.054688 L 580.70508 36.759766 C 565.04333 36.840386 549.38115 36.89959 533.71875 36.931641 C 513.04382 36.938441 492.3669 36.920681 471.69727 36.642578 z M 466.13281 52.359375 L 479.36328 58.904297 C 495.13982 58.673822 510.9245 58.684795 526.70508 58.636719 C 541.88816 58.633819 557.06993 58.742695 572.25195 58.824219 C 576.87325 58.858609 581.4937 58.865701 586.11523 58.863281 L 573.04688 52.398438 C 568.47985 52.395938 563.91435 52.404433 559.34766 52.439453 C 544.41819 52.521353 529.48901 52.630997 514.55859 52.626953 C 498.41638 52.578383 482.2712 52.585963 466.13281 52.359375 z M 682.38086 59.611328 L 688.13867 64.728516 C 692.59605 65.637076 697.03136 66.731592 701.20898 68.576172 C 702.22739 69.105122 703.57579 71.048127 704.2832 70.248047 C 704.51309 70.425017 704.75002 70.593547 704.97266 70.779297 C 708.60562 73.810167 712.03607 77.094447 714.86523 80.904297 C 718.71974 86.730967 728.93751 106.80989 730.05859 113.76367 C 730.29481 114.29957 730.53136 114.83519 730.76758 115.37109 C 732.32195 119.69699 733.75177 124.08199 735.11523 128.4707 C 736.2221 133.31821 737.26962 138.1784 738.46875 143.00391 C 739.59641 147.97215 740.8784 152.92713 742.5957 157.72656 C 744.89649 164.52327 747.34366 169.706 752.82227 174.63672 C 760.53085 181.32726 768.91211 187.59676 778.72266 190.77148 L 772.82422 185.44336 C 769.31131 184.35798 765.96779 182.80664 762.81836 180.92188 C 762.84096 180.91148 762.84056 180.88068 762.78906 180.81055 C 761.9223 179.6301 760.56356 178.90567 759.45117 177.95312 C 754.02887 173.16892 751.57225 168.12883 749.22656 161.49023 C 747.52845 156.72185 746.30327 151.7986 745.13086 146.87891 C 743.90746 142.07235 742.86663 137.22541 741.81641 132.37891 C 740.53062 127.94791 738.98465 123.59515 737.5332 119.21484 C 737.31512 118.66975 737.09688 118.12516 736.87891 117.58008 C 735.75598 112.48773 726.55674 92.794093 723.90234 88.283203 C 716.9505 77.750883 705.47596 68.367719 695.70898 63.412109 C 691.42833 61.610209 686.92419 60.498421 682.38086 59.611328 z M 778.72266 190.77148 C 825.2474 215.81612 864.01945 258.37931 896.52539 295.38281 C 908.72616 309.38483 925.01228 330.27328 935.35352 345.6543 C 949.01655 368.06448 959.77582 379.19611 970.5957 403.20703 C 994.52634 431.07266 999.69076 470.50939 1007.1172 506.99219 C 1006.6425 514.50827 1006.0175 522.07528 1003.6641 529.28125 C 1002.7905 531.57191 1001.7742 534.53453 1000.5234 536.68164 C 997.69846 541.5313 993.30892 545.34968 989.35742 549.22656 C 979.57802 556.13357 969.20864 561.95844 957.95117 566.15625 C 938.24335 574.61173 917.99791 581.85202 897.50391 588.15234 C 859.43519 598.77425 821.13078 608.75365 782.26367 616.0332 C 746.56947 622.78306 710.92127 629.8226 674.95703 635.0332 C 660.76018 637.07695 637.94235 640.41585 623.67969 642.25391 C 607.57101 644.32989 606.27734 649.75 606.27734 649.75 L 603.22266 659.74609 C 618.83816 659.57979 618.14524 652.82357 633.50391 650.41016 C 651.27317 647.61796 666.54752 645.43915 684.36523 642.83789 C 720.68902 637.8104 756.87866 631.96871 792.82031 624.70117 C 831.49924 616.50731 869.84268 606.73885 908.08594 596.71875 C 928.9817 590.78281 949.63022 583.80425 969.65234 575.36328 C 981.16124 571.32811 991.70018 565.42678 1001.6973 558.5293 C 1005.6996 554.45727 1010.3253 550.62138 1013.2773 545.63867 C 1014.6305 543.35463 1015.659 540.32587 1016.5938 537.86914 C 1018.9859 530.53765 1019.6746 522.84103 1020.2969 515.20117 L 1017.6719 500.81445 C 1013.7836 479.51376 1003.0785 443.04512 995.80859 422.60547 C 993.82859 417.65535 992.02964 412.62998 989.86914 407.75586 C 979.14024 383.55075 963.85324 361.6984 950.14062 339.16992 C 939.67167 323.64022 928.94165 308.32996 916.63086 294.16797 C 874.89486 248.4057 827.26639 215.39384 777.31445 187.66992 L 778.72266 190.77148 z M 663.625 62.410156 C 662.29662 62.424156 660.96778 62.467294 659.64062 62.496094 C 656.10892 62.416694 652.61123 62.716636 649.20508 63.660156 C 643.80799 71.079596 647.46161 73.005926 650.81836 75.191406 C 653.78888 77.023856 662.12216 67.499835 665.60742 67.578125 C 668.24337 67.561525 670.88673 67.458209 673.51758 67.667969 C 678.06175 68.213649 682.27786 69.793292 686.18555 72.201172 C 685.3002 71.506662 682.57482 69.521248 683.5293 70.117188 C 685.80624 71.538784 688.75203 74.138969 690.71289 75.912109 C 694.06253 78.941129 697.27911 82.129636 700.13477 85.634766 C 700.82707 86.565766 701.57751 87.457014 702.21289 88.427734 C 704.46923 91.875044 705.81576 95.836153 707.27148 99.658203 L 714.16211 103.62109 C 712.57697 99.707906 711.16218 95.641074 708.88086 92.058594 C 708.24351 91.057774 707.49761 90.130576 706.80664 89.166016 C 701.83592 83.391076 696.44267 77.781212 690.17383 73.388672 C 687.07791 71.219382 683.91198 69.15002 680.78125 67.03125 C 676.71088 64.54358 672.33047 62.999146 667.60742 62.503906 C 666.28147 62.411006 664.95338 62.396086 663.625 62.410156 z M 378.93945 64.097656 C 376.87307 64.036556 376.6228 64.277202 374.53125 64.826172 C 373.65326 65.216832 372.70976 65.486087 371.89648 65.998047 C 369.90183 67.253707 367.75046 69.48399 366.11914 71.125 C 363.72208 73.53626 361.52072 76.025824 359.39844 78.677734 C 356.081 82.727394 354.1177 87.586119 351.94141 92.287109 C 350.65934 94.781919 349.28689 97.231959 347.89258 99.667969 C 349.06167 94.889869 350.25539 90.129033 351.27344 85.314453 C 352.23526 81.554193 353.19409 77.740366 353.66211 73.878906 C 353.75701 73.097656 354.30181 72.153404 353.83008 71.523438 C 352.01164 69.094508 349.42104 67.352708 347.2168 65.267578 C 346.85132 65.126488 346.50966 64.877043 346.11914 64.845703 C 344.02569 64.677703 339.81508 67.468404 338.15039 68.652344 C 336.66176 69.830564 335.68962 70.525824 334.3418 71.927734 C 330.43652 75.989724 327.5982 80.950606 324.30078 85.478516 C 320.42315 91.258576 316.58988 97.097812 313.24023 103.20508 C 313.22903 102.00253 313.22202 100.80008 313.20312 99.597656 C 313.04253 95.277206 312.67988 90.958454 311.37305 86.808594 C 310.57508 84.069844 309.79117 81.311074 308.84961 78.617188 C 308.76361 78.371138 307.217 74.274485 307.05859 74.140625 C 304.71042 72.156395 301.97159 70.689111 299.42773 68.962891 C 299.00517 68.977991 298.57262 68.914716 298.16016 69.007812 C 295.81076 69.537882 294.03159 71.611895 292.65625 73.421875 C 290.88601 76.090645 289.67534 78.95295 289.43164 82.1875 C 288.81333 86.94019 288.55027 91.746687 287.47266 96.435547 C 286.48992 101.4109 285.38456 115.77387 276.88867 125.03125 L 277.11719 125.17969 C 273.13612 129.83261 269.35199 132.72055 264.23242 139.16797 C 258.66752 146.22558 254.60838 154.44211 252.12891 161.46875 C 249.74547 167.72866 240.63813 185.75141 232.06641 191.97656 C 218.24818 196.78895 204.35646 201.51336 191.31641 208.25195 C 186.14304 210.98276 180.91307 213.6104 175.79492 216.44336 C 146.38421 232.72255 118.24046 251.18849 89.601562 268.75391 C 67.85569 282.42051 39.442022 297.97783 16.710938 309.97656 C 12.342632 315.02242 8.2705671 319.60668 5.5175781 326.36914 C -0.5662705 335.62809 1.0578585 342.92903 0.1171875 351.14648 C -0.61267146 358.0516 2.2628378 364.78814 3.0585938 371.7207 C 3.7942464 374.63635 3.2759211 373.27703 4.5644531 375.81445 C 15.978338 390.83827 45.293604 429.9672 53.564453 446.81641 C 66.851541 471.66948 80.931344 496.23207 97.402344 519.14258 C 110.41623 541.49588 133.03218 537.68738 145.00781 570.04297 C 145.00781 570.04297 146.3537 560.91392 144.44922 557.00195 C 136.82923 541.34999 113.24217 534.72217 104.75781 523.06055 C 88.276482 500.40716 74.078594 476.10518 61.40625 451.15039 C 53.634907 434.68991 24.712192 396.16499 14.345703 381.11328 C 12.810327 378.87505 13.433908 380.11492 12.546875 377.35352 C 11.406974 370.51779 8.317448 356.47061 9.015625 349.62891 C 10.123968 342.7643 10.893129 337.19834 13.746094 330.84375 C 16.463227 323.94523 19.950203 317.84763 26.34375 315.88086 C 30.044947 313.16118 38.492399 309.11654 43.921875 305.62695 C 51.741676 300.60108 57.155143 299.1718 64.976562 294.14844 C 75.452213 287.42039 85.885542 280.6265 96.357422 273.89258 C 124.9936 256.36746 152.90922 237.51121 182.50781 221.59961 C 187.68844 218.81461 192.99997 216.27872 198.24609 213.61914 C 211.46974 207.10191 225.45855 202.4814 239.4082 197.8418 C 249.82957 187.61754 257.41828 170.44711 259.77344 164.16406 C 265.71635 150.40815 266.5473 149.06739 272.9668 140.32227 C 277.74136 136.83994 283.47927 129.35545 283.54297 129.3125 C 290.73191 120.22313 291.96475 110.38879 293.89648 100.54688 C 294.95607 95.86765 295.37541 91.091662 296.02734 86.351562 C 296.29501 83.241526 297.3961 80.487686 299.10742 77.916016 C 299.85156 76.945096 300.93445 75.639473 302.16406 74.783203 C 303.21819 77.442223 303.94225 80.274418 304.7207 82.986328 C 305.96842 87.078818 306.36226 91.318649 306.56445 95.568359 C 306.72081 99.770079 306.65455 103.97451 306.62695 108.17773 C 306.59975 110.41967 306.60156 112.66224 306.60156 114.9043 L 313.26758 118.99023 C 313.27658 116.74622 313.2912 114.50184 313.2832 112.25781 C 313.28346 111.13859 313.27839 110.01966 313.27539 108.90039 L 317.63281 111.79102 C 320.83306 103.88743 325.52656 96.682549 330.22461 89.605469 C 333.51693 85.114949 336.50155 80.276698 340.51367 76.361328 C 341.81971 75.086788 342.90815 74.347367 344.34766 73.279297 C 344.82338 72.951147 345.77462 72.336734 346.86133 71.714844 C 346.81953 71.996014 346.77779 72.277934 346.73438 72.558594 C 346.28387 75.465484 345.59354 78.319509 344.87305 81.167969 C 343.78486 86.022389 342.57645 90.840547 341.32422 95.654297 C 340.73306 99.090157 339.43393 102.12953 337.17773 104.77734 C 335.54565 106.32171 334.17373 108.11317 332.75781 109.84961 L 338.99414 114.29688 C 340.46253 112.59268 341.93199 110.89397 343.55078 109.32812 C 344.88102 107.75391 345.91366 106.0428 346.66016 104.19922 L 352.11719 107.93945 C 352.46529 107.33109 352.8142 106.72359 353.16211 106.11523 C 355.02371 103.02236 356.76294 99.847591 358.36523 96.613281 C 360.48471 91.947051 362.3499 87.110461 365.61133 83.082031 C 368.82068 79.000961 373.41593 73.282209 377.9082 70.730469 C 378.71891 70.269959 379.64275 70.046075 380.50977 69.703125 C 380.6428 69.677025 380.72561 69.657712 380.8457 69.632812 C 377.2989 77.823222 372.59263 85.499671 368.63867 93.488281 C 363.76561 102.44175 359.20342 111.69944 352.75781 119.66016 L 359.2207 124.26758 C 362.89209 120.30861 380.09476 117.55667 382.19531 115.20117 C 390.0458 111.3243 395.93169 103.63817 402.69531 98.986328 C 403.72979 98.339488 404.4157 97.902019 405.14648 97.449219 C 403.28675 99.954879 401.17964 102.29317 399.05859 104.55469 C 392.8568 110.53302 386.20063 116.08365 380.71094 122.76367 C 379.58778 124.06273 378.42959 125.3333 377.3418 126.66211 C 373.47856 131.38113 370.17245 136.58489 365.9043 140.96094 L 372.33789 145.63477 C 377.10992 139.40389 381.54336 132.99012 386.6543 127.01367 C 392.17075 120.36428 398.88248 114.89654 405.14844 109.00195 C 409.05296 104.91835 412.81236 100.55999 415.41211 95.511719 C 416.13464 91.938909 416.27216 92.655701 410.74023 89.994141 C 409.71877 88.871031 409.27431 88.695041 409.10547 89.181641 C 408.85586 89.055621 408.66802 88.970241 408.40039 88.832031 C 407.74808 88.495201 406.95677 89.122995 406.26172 89.359375 C 402.79612 90.538055 399.79006 92.485168 396.74414 94.460938 C 389.11119 99.790934 390.13734 108.22745 378.83984 112.66406 C 376.35143 114.7275 364.60879 116.90514 363.04297 118.32227 C 367.14445 111.53909 370.67562 104.41793 374.39453 97.419922 C 378.64151 89.045212 383.74443 81.102552 387.80273 72.632812 C 387.96676 72.066106 388.25378 71.522264 388.29297 70.933594 C 388.53071 67.360424 382.49425 64.202756 378.93945 64.097656 z M 145.00781 570.04297 C 145.72177 574.37212 143.85342 596.91001 144.37109 602.14844 C 146.23929 621.05307 151.28367 640.74904 157.95703 658.51758 C 165.58623 677.33932 172.47284 696.69884 182.63867 714.34961 C 185.20534 718.7621 188.58084 722.42377 192.26172 725.89062 L 206.14648 732.86719 C 202.22158 729.53399 198.64681 725.97614 195.91797 721.54102 C 185.22078 703.88465 177.85447 684.38192 170.05078 665.3418 C 162.12315 644.39105 153.4352 623.20667 149.98828 600.97266 L 145.00781 570.04297 z M 351.42578 69.830078 C 351.71282 69.805978 351.96148 69.829056 352.1582 69.910156 C 352.50818 70.055096 352.66058 70.476526 352.91211 70.759766 C 352.40447 70.485176 351.91371 70.162588 351.42578 69.830078 z M 638.32031 72.783203 C 637.52082 72.802603 636.75151 72.954271 636.08203 73.369141 C 635.65245 73.635331 634.67778 74.655584 634.31445 75.021484 C 632.43909 77.135704 631.08888 79.471027 630.53711 82.248047 C 630.33452 84.432787 631.22998 86.016509 632.77539 87.449219 L 639.84961 90.96875 C 638.28069 89.82924 637.16367 88.538555 637.18945 86.484375 C 637.57851 83.827595 638.91523 81.643478 640.71289 79.673828 C 641.08555 79.307478 641.78532 78.557001 642.27734 78.300781 C 643.97272 77.417921 646.27641 78.199118 648.01953 78.330078 C 654.826 79.666248 661.38103 81.940605 667.36133 85.515625 C 668.53845 86.250995 669.64731 87.112671 670.88086 87.744141 C 671.48505 88.204501 672.08968 88.664557 672.66992 89.154297 C 675.5842 91.614087 678.28757 94.31586 680.49414 97.4375 C 680.98774 98.29627 681.53954 99.123798 681.97461 100.01367 C 683.35731 102.84204 684.12064 106.01939 685.01367 109.01758 L 691.97461 112.92773 C 690.81304 109.92201 690.10012 106.70433 688.69531 103.79297 C 688.24592 102.86169 687.69152 101.986 687.18945 101.08203 C 680.78969 92.112234 671.25151 86.107013 662.01367 80.408203 C 655.89046 76.824773 649.18301 74.581684 642.25586 73.210938 C 641.06979 73.089728 639.65278 72.750823 638.32031 72.783203 z M 457.55078 85.820312 L 472.87695 92.955078 L 472.87695 92.953125 C 487.9999 93.428805 503.17964 92.964697 518.33203 92.904297 C 526.94368 92.875897 535.55342 92.964401 544.1582 93.113281 L 529.03125 86.146484 C 520.55052 86.088284 512.07061 86.093416 503.58984 86.166016 C 488.25184 86.276416 472.81931 86.687452 457.55078 85.820312 z M 659.26172 103.45703 C 660.35641 103.88544 661.43065 104.36175 662.48242 104.92383 C 662.55142 104.96073 662.69109 105.05599 662.78125 105.10938 C 664.35657 106.51025 665.7838 108.01987 666.9375 109.70117 C 664.71551 107.6553 662.33746 105.77178 659.92969 103.93555 C 659.70531 103.78116 659.48512 103.61412 659.26172 103.45703 z M 619.34766 112.04492 C 619.47831 112.10412 619.61185 112.15599 619.74023 112.2207 C 620.41465 112.56071 622.27833 113.8596 621.63086 113.4707 C 620.86161 113.00866 620.1066 112.52381 619.34766 112.04492 z M 609.30078 115.96484 C 608.78767 119.03838 608.2144 122.11528 608.22461 125.24609 C 608.36823 133.72934 609.4474 142.24116 612.57227 150.1875 C 614.32654 154.03396 614.53502 155.17867 617.27344 158.45508 C 623.37311 165.75305 632.25131 170.04025 640.72266 173.91992 C 651.08552 178.46007 655.14498 181.22681 671.00195 186.17188 C 672.42985 186.41505 681.11328 197.2207 681.11328 197.2207 L 697.82031 218.28125 C 702.29829 224.11841 716.14106 243.187 720.29102 249.55469 C 742.62353 283.82193 719.85828 245.49512 744.46289 282.25195 C 766.5235 310.40711 777.35649 336.48749 795.80078 364.58398 C 799.69698 370.51096 811.09838 391.75044 816.09961 399.30273 C 825.28401 413.17204 827.9665 412.67994 835.18555 421.35547 C 835.46032 421.68542 835.76481 422.00585 836.06445 422.35156 C 850.05569 444.10199 861.56254 454.92187 876.98633 475.89648 L 887.91797 491.84766 L 898.45312 493.09766 C 906.64007 494.069 896.57698 482.58428 891.3418 476.2168 C 879.16284 461.20576 858.88544 431.06167 846.11914 416.54492 C 831.37717 399.60795 818.23142 376.99528 806.7793 357.55078 C 788.6641 329.78722 774.39511 305.88508 755.65625 278.53906 C 752.26816 273.29751 732.04843 253.44325 728.70703 248.17188 C 720.82796 235.74186 721.5376 236.89373 712.08398 225.54688 C 710.50538 224.90896 708.91298 224.06472 707.36133 223.14062 L 712.08398 225.54688 L 683.29883 193.36719 C 683.29883 193.36719 676.02522 184.3425 670.99414 181.83398 C 658.712 178.37881 645.64119 173.51758 635.4043 168.98242 C 632.49246 167.87822 629.82307 166.2803 627.0625 164.86914 C 626.10348 163.73375 624.79581 162.90794 623.81641 161.7832 C 621.05728 158.61459 620.82634 157.50121 619.01172 153.75391 C 615.81805 145.94084 614.78772 137.53947 614.64258 129.16406 C 614.66528 126.09536 615.22705 123.07995 615.75391 120.07031 L 609.30078 115.96484 z M 400.28125 135.91016 C 399.14677 135.92656 398.01006 135.98096 396.87109 136.06445 C 387.4056 138.46264 378.7293 143.02648 370.70703 148.49414 C 366.74979 151.36972 363.18551 154.7159 359.32812 157.71875 C 358.70465 158.15017 358.08249 158.5803 357.45898 159.01172 L 363.63477 163.66797 C 364.26448 163.22687 364.89374 162.78681 365.52344 162.3457 C 369.41704 159.42297 372.82976 155.96671 376.69727 153.00977 C 384.52619 147.42974 393.10975 142.7809 402.64062 140.93555 C 407.29927 140.75084 411.86517 141.05185 416.35547 142.39453 L 410.38477 137.08594 C 407.06311 136.15864 403.68469 135.86095 400.28125 135.91016 z M 317.49609 197.60156 C 307.90825 216.83366 292.41801 232.52621 277.59961 247.79492 C 257.24453 268.69073 233.91917 286.28377 210.39648 303.40039 C 207.67521 305.33156 204.96273 307.27498 202.23242 309.19336 C 196.32416 313.34463 194.15844 314.63955 188.50781 319.05273 C 180.67654 325.16897 173.26902 331.82012 165.79102 338.35547 C 157.43992 345.90429 161.36591 342.23852 153.98047 349.31641 L 162.33594 355.39453 C 169.43302 348.15621 165.63474 351.8916 173.76953 344.23242 C 180.25726 338.51551 182.45558 336.46282 189.2207 330.97852 C 198.60029 323.37473 208.51537 316.48377 218.13477 309.19531 C 241.26698 291.56708 264.45787 273.81517 285.03125 253.17969 C 297.5956 240.29057 310.12595 227.17728 321.01367 212.80078 C 323.4721 209.55458 324.75896 207.21721 326.70703 203.9082 L 317.49609 197.60156 z M 450.47656 205.31445 L 410 212.14258 L 407.74023 208.93945 C 405.08899 211.02696 402.66961 213.40515 400.37695 215.9043 C 398.66325 216.20157 396.9509 216.51 395.24023 216.83594 C 391.66438 217.4207 387.07752 218.08056 383.55469 219.00781 C 376.55437 220.85039 370.50546 224.81479 364.34766 228.47656 C 362.22126 229.72215 360.07438 230.92719 357.91797 232.11523 C 357.38835 232.33564 356.858 232.56404 356.32812 232.78906 L 342.23242 251.12891 L 343.83203 252.21289 C 343.00824 252.18636 342.20887 252.18875 341.41406 252.19336 L 326.78516 271.22656 L 308.38281 308.33789 L 320.95898 317.75 C 323.84859 315.91741 326.84106 314.27935 329.90625 312.79297 L 334.54883 316.75781 C 337.22825 316.58888 339.90764 316.43881 342.58789 316.29492 C 334.7371 319.27024 326.79073 321.98228 318.59766 323.79102 L 322.55469 326.98438 C 319.43357 326.88788 316.31371 326.73899 313.19531 326.51172 L 327.66406 338.86914 L 323.59375 337.46484 C 321.13229 339.78714 319.1791 342.37415 318.00977 345.60156 C 315.41143 352.36711 313.0841 359.31342 311.91602 366.48242 C 312.10492 368.58422 312.03309 369.80918 312.92969 371.77148 C 314.56662 375.35394 317.85907 378.09401 319.57031 381.64453 C 322.51951 387.39471 324.74328 393.67864 328.76172 398.78516 L 332.68359 399.44922 C 332.76169 401.13085 332.84017 402.81191 332.93164 404.48828 C 334.11452 421.23975 335.0068 438.40078 340.54883 454.21289 C 344.80863 466.06901 363.93263 501.64338 359.2168 503.74805 L 363.93359 501.64453 C 369.12504 499.32764 352.95891 471.38293 348.63281 459.25586 C 343.03338 443.47584 341.85297 426.42318 340.68555 409.67383 C 340.5001 406.69546 340.34798 403.71062 340.21484 400.72461 L 344.53711 401.45703 C 342.72023 399.61556 341.2753 397.49794 340.00586 395.26172 C 339.76927 387.31549 339.81386 379.36333 340.37891 371.44922 L 356.77148 385.44922 C 368.92134 384.68319 381.07964 384.18914 393.24805 383.82812 C 397.66575 383.67393 402.0834 383.60016 406.50195 383.55664 C 406.80004 383.60194 407.09992 383.63563 407.39844 383.67773 C 402.83625 383.97218 398.27696 384.34243 393.72266 384.82617 C 387.08559 385.58673 378.77702 386.34736 372.20703 387.83203 C 364.07991 389.66858 356.29649 393.12965 349.06836 397.19922 L 357.3418 403.32617 C 357.10547 403.30977 356.86913 403.3005 356.63281 403.2832 L 375.96484 419.79297 C 384.22973 419.27188 392.49827 418.88507 400.77148 418.57227 L 409.29883 425.85547 C 421.44869 425.08944 433.60697 424.59536 445.77539 424.23438 C 455.94904 423.87921 466.1261 423.89829 476.30273 423.92773 C 470.03957 426.30044 463.01424 426.33479 456.44336 426.67969 C 441.78245 426.86111 427.13413 427.64365 412.47266 427.85156 C 399.58236 428.12445 386.67916 428.4637 373.80469 427.52539 L 393.13672 444.03711 C 405.28657 443.27108 417.44486 442.77899 429.61328 442.41797 C 444.58932 441.89515 459.57111 442.17664 474.55078 442.12109 C 482.1638 441.74729 490.42926 441.84329 497.39062 438.20508 C 498.65733 437.5431 499.78234 436.64162 500.97852 435.85938 C 504.81735 433.12069 507.64535 429.33459 510.71289 425.82031 L 506.16406 422.58008 C 508.72445 422.04154 511.21262 421.24644 513.55273 420.02344 C 514.81944 419.36145 515.94448 418.45807 517.14062 417.67578 C 520.97945 414.9371 523.80746 411.151 526.875 407.63672 L 518.36328 401.57227 C 519.83081 401.11183 521.26423 400.54169 522.64453 399.82031 C 523.91124 399.15833 525.03624 398.25494 526.23242 397.47266 C 530.06405 394.73911 532.88832 390.96183 535.94922 387.45312 C 538.03153 386.5906 540.11376 385.72321 542.19531 384.87109 L 526.0625 372.14062 C 526.39138 372.00585 526.7225 371.8769 527.05078 371.74023 C 534.56759 368.85982 541.51025 364.79944 548.57227 360.98242 C 547.71196 368.82582 546.74697 376.65541 545.61914 384.4668 C 543.45834 399.606 540.66011 414.62072 537.17969 429.45117 C 533.91743 442.0884 529.44574 454.29484 525.12109 466.51953 C 521.12757 477.00927 517.58027 487.81312 512.39453 497.67383 C 511.07585 500.24791 509.27505 502.37724 507.42773 504.47461 L 515.49219 510.94531 C 515.96223 510.38179 516.42621 509.81403 516.88086 509.23828 C 520.0464 513.1325 523.57172 516.70802 527.54297 519.86133 C 532.54567 523.76876 537.75783 527.50328 543.81445 529.60742 L 554.77734 526.88086 C 548.53477 525.15868 543.18295 521.47728 538.06445 517.65039 C 532.33219 513.14761 527.50046 507.7804 523.54492 501.6875 C 523.2184 501.06966 522.89296 500.45181 522.56641 499.83398 L 522.2832 499.88086 C 526.31858 490.93454 529.30949 481.42607 532.85547 472.23633 C 537.22741 459.99724 541.94013 447.85456 545.07812 435.13086 C 548.25057 421.09966 550.7399 406.88674 552.91992 392.625 L 556.25586 396.11328 C 560.18376 390.11498 566.14375 381.27805 572.55664 371.59766 C 575.48615 365.65764 578.42198 358.94143 578.34375 351.42188 C 577.55251 347.27758 575.53321 344.09383 573.06055 341.46875 C 573.48941 340.96326 573.9166 340.45534 574.35156 339.95703 L 564.04688 332.61523 C 565.08286 331.4139 566.10634 330.20062 567.14453 329.00586 C 567.80903 328.72998 568.46758 328.43606 569.11133 328.09961 C 570.37804 327.43763 571.50303 326.53424 572.69922 325.75195 C 576.53804 323.01327 579.36605 319.22718 582.43359 315.71289 L 578.85938 313.16602 C 585.01677 313.29512 591.1791 313.12661 597.33789 312.83008 L 592.3418 297.39844 C 591.66133 297.44893 590.98131 297.50724 590.30078 297.55469 C 590.83009 297.18661 591.35399 296.81121 591.89258 296.45898 C 591.93244 296.43055 591.96817 296.3978 592.00781 296.36914 L 580 259.28516 L 557.14258 242.85742 L 572.2832 242.73242 L 529.28516 216.42773 L 502.28711 210 C 500.40808 209.97526 498.52914 209.95268 496.65039 209.91016 C 483.82996 209.52045 471.00126 208.8232 458.33398 206.67969 C 455.72118 206.24754 453.10112 205.77661 450.47656 205.31445 z M 556.25586 396.11328 C 550.77068 404.48969 549.37497 407.15175 557.36328 397.27148 L 556.25586 396.11328 z M 510.28711 225.15625 C 511.71874 225.20855 513.1506 225.27428 514.58203 225.31836 C 524.44474 225.555 534.30899 225.59707 544.17383 225.66406 C 539.87528 226.34054 535.44204 226.44701 531.19531 226.66992 C 524.96026 226.74712 518.72679 226.93837 512.49414 227.14258 L 510.28711 225.15625 z M 470.48438 227.40039 C 473.27248 227.55468 476.05839 227.7601 478.8418 228.01367 C 476.3824 228.05917 473.92226 228.07786 471.46289 228.09766 L 470.48438 227.40039 z M 419.59961 236.00195 C 421.38024 235.99065 423.16085 236.01764 425.04883 236.02734 C 428.32269 236.06414 431.59159 236.16551 434.85742 236.3125 C 433.84535 236.4018 432.83354 236.4947 431.82227 236.59375 C 430.59573 236.65195 429.36358 236.70831 428.16016 236.77148 C 423.12602 236.83378 418.0929 236.97438 413.06055 237.13086 C 413.28906 236.83887 413.51223 236.53914 413.74219 236.25 C 413.87781 236.2388 414.01277 236.22154 414.14844 236.21094 C 416.03779 236.06359 417.81897 236.01323 419.59961 236.00195 z M 375.00195 253.55469 C 374.01869 254.42351 373.08929 255.36441 372.20117 256.35742 C 369.37857 255.63125 366.5428 254.96233 363.68359 254.40039 C 363.96034 254.21205 364.24033 254.02801 364.52148 253.8457 L 364.85352 254.12891 C 368.23584 253.91566 371.61829 253.72866 375.00195 253.55469 z M 464.03125 258.07617 L 465.55078 259.375 C 464.1475 259.3075 462.6004 259.25256 460.74414 259.20898 C 460.425 259.20198 460.1062 259.20717 459.78711 259.20117 C 461.19406 258.79888 462.61073 258.42957 464.03125 258.07617 z M 421.73633 259.9375 L 422.32031 260.4043 C 421.91188 260.88859 421.50357 261.37181 421.07617 261.83789 C 418.9064 262.14728 416.73962 262.47111 414.57617 262.82227 C 412.99804 263.0905 411.41602 263.37266 409.83594 263.64258 C 413.7543 262.26809 417.72699 261.04445 421.73633 259.9375 z M 359.70703 267.20312 C 361.21157 267.21422 362.75013 267.29813 364.2832 267.4043 C 363.77271 268.20122 363.25602 269.00992 362.74805 269.78906 C 362.31068 270.60613 361.97212 271.22835 361.58008 271.95508 C 356.99484 272.09664 352.40919 272.22402 347.82227 272.28906 C 346.20545 272.32326 344.58783 272.35302 342.9707 272.38672 C 346.77657 269.64203 351.08043 267.77319 356.07422 267.33203 C 357.23838 267.22919 358.4587 267.19397 359.70703 267.20312 z M 374.82227 268.47656 C 376.67357 268.75982 378.51443 269.08643 380.3457 269.45703 C 377.80649 270.07784 375.27918 270.74654 372.76562 271.46094 C 373.44076 270.45922 374.12035 269.46313 374.82227 268.47656 z M 451.75195 273.89844 C 448.139 274.67723 444.52406 275.44769 440.90234 276.18555 C 441.36448 275.69255 441.81319 275.18634 442.25977 274.67773 C 445.4188 274.3505 448.58336 274.10079 451.75195 273.89844 z M 435.06055 281.16797 L 437.05469 282.76367 C 435.00313 282.99302 432.95477 283.2382 430.90625 283.49414 C 431.52533 283.23305 432.13931 282.95664 432.74023 282.64258 C 433.55277 282.21795 434.30826 281.69535 435.06055 281.16797 z M 559.74219 281.72461 C 563.89541 281.83599 568.04912 281.90195 572.20312 281.92578 C 571.21644 282.52968 570.25584 283.18502 569.21289 283.68359 C 567.52013 284.49279 565.75825 285.09755 563.95312 285.55664 L 559.79102 282.03906 C 559.77612 281.93399 559.75739 281.82964 559.74219 281.72461 z M 486.18945 283.86914 L 487.81055 285.25195 C 486.41315 284.98824 485.0115 284.745 483.61133 284.49805 C 484.47077 284.28788 485.32939 284.07629 486.18945 283.86914 z M 343.20312 287.67969 C 342.76696 287.78083 342.32983 287.87821 341.89453 287.98242 C 336.80009 289.51602 331.72376 291.1323 326.67383 292.83203 C 327.19764 291.79324 327.73558 290.76175 328.3125 289.75 C 328.58439 289.27318 328.83056 288.85903 329.07812 288.44141 C 333.78473 288.14809 338.49393 287.89995 343.20312 287.67969 z M 448.22266 303.07422 C 449.94138 303.35043 451.66045 303.62637 453.37305 303.9082 C 455.6283 304.35352 457.89034 304.74732 460.1543 305.11719 C 458.63052 305.14539 457.10732 305.17619 455.58398 305.21875 C 453.113 304.28584 450.58782 303.66059 448.0293 303.29688 C 448.0946 303.22338 448.15767 303.14797 448.22266 303.07422 z M 380.92188 322.91602 L 383.42969 324.86328 C 380.28407 325.11506 377.13417 325.29655 373.98047 325.33984 C 374.64526 325.09057 375.30737 324.83394 375.97266 324.58594 C 377.61139 323.99618 379.26201 323.44048 380.92188 322.91602 z M 450.72852 330.39258 C 452.63982 330.52924 454.55228 330.65318 456.46484 330.77344 C 456.2864 330.8859 456.10641 330.9954 455.92773 331.10742 C 454.49275 331.12562 453.05794 331.14174 451.62305 331.14844 L 450.72852 330.39258 z M 345.00391 342.49805 L 355.69141 351.625 C 351.6449 350.7997 347.62717 349.84811 343.65625 348.7207 C 344.0472 346.89422 344.44594 345.06941 344.81641 343.23828 C 344.87761 342.99149 344.94248 342.74486 345.00391 342.49805 z M 336.15234 344.96289 C 335.63433 347.16153 335.1395 349.36599 334.73828 351.59375 C 334.70458 351.78088 334.67733 351.969 334.64453 352.15625 C 333.84908 352.12515 333.0531 352.1016 332.25781 352.0625 C 332.52448 351.37916 332.77734 350.68791 333.05078 350.00977 C 333.79887 348.07788 334.85169 346.43234 336.15234 344.96289 z M 569.00195 346.08984 C 568.76275 352.17188 566.13888 357.81465 563.88281 362.78125 C 561.06604 368.19068 558.03876 373.34665 554.87305 378.32617 C 555.90108 370.16345 556.81825 361.98632 557.63867 353.79492 C 558.79544 353.39011 559.92984 352.91836 561.0293 352.34375 C 562.29601 351.68177 563.42295 350.77837 564.61914 349.99609 C 566.22926 348.8474 567.65545 347.5098 569.00195 346.08984 z M 343.46484 349.62695 L 346.51367 352.38086 C 345.31038 352.38072 344.10742 352.37084 342.9043 352.35938 C 343.08811 351.44765 343.2716 350.53654 343.46484 349.62695 z M 118.83203 351.93359 C 126.17645 360.85304 133.66213 369.67362 141.29297 378.35156 C 159.09574 396.57202 177.52848 414.15281 195.34766 432.36133 C 208.05464 446.37722 221.6666 459.70708 233.01562 474.89844 C 237.6239 481.06689 241.74891 487.59169 245.96484 494.02539 C 248.00142 497.17408 250.03764 500.32202 252.07422 503.4707 C 257.71958 511.83219 267.72942 528.05252 271.82227 537.23242 C 273.47733 541.05118 275.13827 544.86715 276.81641 548.67578 L 286.30664 553.95703 C 284.5591 550.1021 282.82596 546.24114 281.08594 542.38281 C 276.94856 533.36142 265.50469 516.72174 260.64062 508.0625 C 258.57391 504.89764 256.50621 501.73322 254.43945 498.56836 C 250.00094 491.68153 246.466 485.91629 241.56445 479.37695 C 230.01237 463.96491 215.98512 450.61483 203.12695 436.33789 C 185.71992 418.4077 167.90869 400.88709 150.39648 383.0625 C 142.97915 374.61102 135.66146 366.0131 128.78906 357.12109 L 118.83203 351.93359 z M 331.125 355 L 333.83984 357.31836 C 332.77862 365.05012 332.35285 372.86774 332.2832 380.69727 C 330.05626 377.4327 327.81949 374.32584 327.25195 370.17773 C 327.85855 364.97999 329.33119 359.92292 331.125 355 z M 549.13477 355.5957 C 549.12297 355.7096 549.11151 355.82361 549.09961 355.9375 L 548.71094 355.63867 C 548.85218 355.62407 548.9937 355.6113 549.13477 355.5957 z M 341.12305 363.53711 L 346.66992 368.27539 C 354.85936 367.75906 363.05238 367.37394 371.25 367.0625 C 374.90926 367.75767 378.568 368.45782 382.23242 369.12695 C 380.1908 369.17505 378.14945 369.23472 376.10742 369.26367 C 364.25805 369.51452 352.3973 369.80982 340.55859 369.12891 C 340.71645 367.26253 340.90174 365.39795 341.12305 363.53711 z M 484.87305 372.4082 C 486.88212 372.4142 488.89133 372.41102 490.90039 372.41602 L 499.83398 379.74805 C 497.75438 380.32898 495.65993 380.8609 493.53516 381.29102 L 489.91406 378.40625 C 490.59733 378.43665 491.28098 378.46366 491.96484 378.50586 L 484.87305 372.4082 z M 410.47852 398.89453 L 415.37109 403.07227 C 408.68144 403.29486 401.99133 403.51447 395.29883 403.60938 C 392.07625 403.67754 388.85433 403.74917 385.63086 403.80469 C 385.3835 403.80869 385.13603 403.8085 384.88867 403.8125 C 393.09083 401.06836 401.95749 399.96376 410.47852 398.89453 z M 491.69922 403.73047 L 491.70117 403.73047 C 493.3022 403.73347 494.90291 403.73342 496.50391 403.73242 C 495.83886 404.15146 495.17094 404.56192 494.46289 404.90039 C 492.71484 405.73603 490.8904 406.35213 489.02344 406.81641 C 489.78644 405.97392 490.52732 405.11055 491.26367 404.24219 C 491.40868 404.07118 491.5544 403.9016 491.69922 403.73047 z M 831.31055 491.0918 C 816.25761 491.048 801.22577 491.78861 786.35156 494.51562 C 749.17635 499.91951 711.80436 503.8338 674.70312 509.72461 C 639.91956 516.08314 605.39287 523.73963 570.70508 530.5918 C 556.58477 533.35437 542.46137 536.30044 528.67773 540.4668 L 541.04883 550.45117 C 554.28659 545.67941 568.15716 542.68933 581.90625 539.77539 C 616.10851 531.98458 650.39481 524.54459 684.87695 518.09766 C 722.10356 512.12234 759.6121 508.15718 797.00195 503.36523 C 817.14498 500.06702 837.50731 500.20211 857.81445 501.21094 C 866.24699 501.70163 891.81514 503.67071 900.25977 503.88281 L 908.72461 497.42578 L 908.72461 491.71094 C 896.04603 503.24005 854.65207 491.64604 846.36523 491.35352 C 841.34807 491.20921 836.3282 491.10641 831.31055 491.0918 z M 258.16016 492.7793 L 266.60352 500.2832 C 268.82451 500.9125 269.22136 500.96332 271.66602 502.02148 C 281.6658 506.34968 291.2356 511.82618 300.93555 516.76953 C 311.97615 522.31338 323.24635 527.53667 335.04492 531.27734 C 340.30583 532.94529 343.22825 533.54705 348.46875 534.79297 L 340.66602 527.81055 C 335.2112 526.54769 333.04401 526.15005 327.51953 524.40039 C 315.84032 520.70148 304.69253 515.52202 293.76562 510.0332 C 270.59369 498.07089 297.24855 511.85498 276 500.79688 C 270.23923 497.79888 264.48166 494.46935 258.16016 492.7793 z M 343.53125 498.06055 C 342.95525 498.45623 342.37871 498.85237 341.80273 499.24805 C 335.47092 502.80867 328.70064 505.32096 321.5332 506.64844 C 315.2232 507.66211 308.77397 508.43676 302.44531 507.06445 L 310.88867 514.56836 C 317.22996 515.51604 323.57936 514.62905 329.82422 513.49023 C 337.12772 512.09789 344.01739 509.48155 350.54297 505.98242 C 351.15794 505.57382 351.77175 505.16447 352.38672 504.75586 L 343.53125 498.06055 z M 491.63867 597.12305 L 481.38867 598.62695 C 476.76812 599.30466 462.39765 610.32278 466.57422 615.48633 L 476.08594 627.24609 C 476.08594 627.24609 475.41898 618.62135 476.97852 614.74609 C 479.83116 607.65754 483.41464 605.45702 491.63867 597.12305 z M 308.22461 605.5918 C 308.22461 605.5918 307.73767 608.01645 308.51172 608.72266 C 307.651 608.20059 309.97083 610.11543 310.60352 610.89844 C 311.58884 612.11779 312.54058 613.37436 313.35352 614.71484 C 317.76669 621.99153 320.21037 630.34365 322.93945 638.32227 C 326.1872 648.25158 328.51628 658.42698 330.75391 668.61719 L 343.47656 676.0332 C 341.1181 665.78683 338.66548 655.56077 335.54688 645.51172 C 333.09484 637.61402 330.94263 629.33154 326.99609 621.99023 C 326.96959 621.94263 323.35206 616.16127 322.75977 615.70508 C 318.08344 612.1033 313.0697 608.96314 308.22461 605.5918 z M 670.41016 647.41406 C 657.81564 656.21549 645.3089 665.1165 633.16211 674.5293 C 618.24526 686.52533 605.37076 700.68859 592.63867 714.89844 C 591.55069 716.18643 590.46297 717.47377 589.375 718.76172 L 601.92773 727.68555 C 602.95149 726.3711 603.97624 725.0566 605 723.74219 C 617.13629 709.1686 629.75174 694.90387 644.82812 683.25 C 657.22939 674.04621 669.75035 664.97231 682.99219 657 L 670.41016 647.41406 z M 645.57422 692.73047 C 650.83785 701.92629 651.0109 740.15179 655.62305 763.54102 C 663.367 802.21122 669.62436 841.16423 675.93164 880.08984 C 680.27208 905.71228 683.85146 931.61963 691.35352 956.56055 C 692.06608 958.43209 692.7796 960.30233 693.49219 962.17383 L 706.78516 969.63281 C 705.9782 967.75031 705.17224 965.86873 704.36523 963.98633 C 695.81492 939.00117 691.98764 912.75 687.35352 886.83594 C 680.84117 847.95163 674.74347 808.99029 667.13086 770.30078 C 663.02357 747.48011 665.15847 709.00886 655.5957 701.06055 L 645.57422 692.73047 z M 158.69531 697.02148 C 159.67564 721.62499 159.67005 746.25062 159.67969 770.86914 C 159.22498 796.50243 159.20442 822.09571 162.13672 847.58594 C 164.2181 866.9121 169.30879 885.63628 174.61523 904.26758 C 178.76616 917.36689 183.70857 930.1556 187.72461 943.29883 C 190.35391 952.10948 193.34212 960.80488 196.23828 969.5293 L 209.49219 977.06641 C 206.47052 968.33921 203.40109 959.62652 200.75391 950.77539 C 199.9212 947.8794 197.81587 940.41182 196.7832 937.34961 C 193.87696 928.73153 189.97613 920.45416 187.51172 911.67383 C 181.9546 893.11616 176.85913 874.40227 174.71289 855.08398 C 171.41475 829.49249 170.94755 803.75875 171.27344 777.97266 C 171.28244 753.75662 176.51679 715.84833 166.90039 705.68945 L 158.69531 697.02148 z M 410.68945 727.71484 C 410.96414 730.94672 411.14717 734.1843 411.28125 737.42383 A 0.80731385 0.80731385 0 0 0 411.14648 737.87109 A 0.80731385 0.80731385 0 0 0 411.31836 738.36719 C 411.61278 746.10677 411.60356 753.85976 411.63672 761.60156 C 411.09912 778.28183 414.06377 794.73777 416.15234 811.21484 C 418.38993 832.34433 420.1432 853.51107 421.05664 874.74023 C 421.74171 891.71363 421.78276 908.7052 421.68359 925.68945 C 421.23916 938.05221 422.09281 950.35938 422.92578 962.68164 C 422.99948 966.11494 423.43063 969.50552 423.98633 972.88672 L 431.25781 977.14258 L 443.79883 977.14258 C 443.72349 976.46327 443.65025 975.78285 443.60352 975.09766 C 442.21277 962.70076 440.94355 950.28406 441.4375 937.78516 C 441.22017 920.62962 441.03274 903.46937 440.18945 886.33008 C 438.93676 865.08944 436.96663 843.91646 435.35156 822.70117 C 435.07225 819.47531 434.86036 816.24276 434.51367 813.02344 C 433.10655 799.95697 430.68951 786.9381 431.41797 773.72461 C 431.46487 762.81591 431.37266 751.87336 432.36523 741 L 410.68945 727.71484 z M 589.74023 731.00391 A 0.80731385 0.80731385 0 0 0 588.93359 731.81055 A 0.80731385 0.80731385 0 0 0 589.74023 732.61719 A 0.80731385 0.80731385 0 0 0 590.54883 731.81055 A 0.80731385 0.80731385 0 0 0 589.74023 731.00391 z M 706.91797 975.46094 A 0.80731385 0.80731385 0 0 0 706.11133 976.26758 A 0.80731385 0.80731385 0 0 0 706.91797 977.07422 A 0.80731385 0.80731385 0 0 0 707.72656 976.26758 A 0.80731385 0.80731385 0 0 0 706.91797 975.46094 z " style="fill:#fff;stroke:none;stroke-width:5.66929" id="path867" />
      <path id="path846" d="m 170.06305,180.12366 54.0506,-23.8125 53.67262,-2.64583 c 0,0 -31.26416,11.34506 -46.68006,15.49702 -20.68955,5.57231 -61.04316,10.96131 -61.04316,10.96131 z" style="fill:url(#linearGradient854);fill-opacity:1;stroke:none;stroke-width:0.264583px;stroke-linecap:butt;stroke-linejoin:miter;stroke-opacity:1" />
      <path style="fill:url(#linearGradient854-0);fill-opacity:1;stroke:none;stroke-width:0.163852px;stroke-linecap:butt;stroke-linejoin:miter;stroke-opacity:1" d="m 10.748379,105.52596 25.355083,26.29288 12.581484,30.21554 c 0,0 -13.209231,-15.68335 -18.857495,-23.69859 -7.58049,-10.75718 -19.079072,-32.80983 -19.079072,-32.80983 z" id="path846-3" />
      <path transform="matrix(0.26458333,0,0,0.26458333,7.5332936,10.034377)" d="M 174.87695 703.72266 C 174.87695 703.72266 177.51789 830.69148 192.41602 897.4707 C 195.81416 912.70255 201.61226 932.89948 208.00977 953.58398 L 250.73047 953.58398 L 258.41797 883.72266 L 174.87695 703.72266 z " style="fill:url(#linearGradient882);fill-opacity:1;stroke:none;stroke-width:1.02915px;stroke-linecap:butt;stroke-linejoin:miter;stroke-opacity:1" id="path880" />
      <path transform="matrix(0.26458333,0,0,0.26458333,7.5332936,10.034377)" d="M 632.14062 690.78516 L 609.06055 887.87891 L 640.8418 957.625 L 679.02148 957.625 C 678.80638 929.6355 678.03677 900.41029 676.05078 880.30469 C 669.32504 812.21518 632.14062 690.78516 632.14062 690.78516 z " style="fill:url(#linearGradient886);fill-opacity:1;stroke:none;stroke-width:1.02915px;stroke-linecap:butt;stroke-linejoin:miter;stroke-opacity:1" id="path884" />
      <rect ry="6.0107775" rx="6.0107775" y="263.94043" x="-3.1574872" height="45.435822" width="222.90279" id="rect894" style="fill:#333333;fill-opacity:0;stroke:none;stroke-width:1.5" />
   </g>
</svg>
